# Blender v3.3.10 OBJ File: 'Treadmill.blend1'
# www.blender.org
mtllib Treadmill.mtl
o Cube
v 0.410650 0.169810 -1.030000
v 0.410650 0.216464 -0.982794
v 0.430000 0.170114 -0.983650
v 0.410650 0.192699 -1.023002
v 0.420147 0.169907 -1.023123
v 0.419849 0.192035 -1.017866
v 0.420147 0.209587 -0.983068
v 0.410650 0.209535 -1.005973
v 0.419848 0.204394 -1.005396
v 0.427129 0.170017 -1.006400
v 0.427129 0.192864 -0.983376
v 0.424979 0.192093 -1.005530
v 0.410650 0.102129 -1.030000
v 0.430000 0.101825 -0.983650
v 0.410650 0.055475 -0.982794
v 0.420147 0.102032 -1.023123
v 0.410650 0.079239 -1.023002
v 0.419849 0.079904 -1.017866
v 0.427129 0.079075 -0.983376
v 0.427129 0.101922 -1.006400
v 0.424979 0.079846 -1.005530
v 0.410650 0.062404 -1.005973
v 0.420147 0.062352 -0.983068
v 0.419848 0.067545 -1.005396
v 0.410650 0.169810 1.030000
v 0.430000 0.170114 0.983650
v 0.410650 0.216464 0.982794
v 0.420147 0.169907 1.023123
v 0.410650 0.192699 1.023002
v 0.419849 0.192035 1.017866
v 0.427129 0.192864 0.983376
v 0.427129 0.170017 1.006400
v 0.424979 0.192093 1.005530
v 0.410650 0.209535 1.005973
v 0.420147 0.209587 0.983068
v 0.419848 0.204394 1.005396
v 0.430000 0.101825 0.983650
v 0.410650 0.102129 1.030000
v 0.410650 0.055475 0.982794
v 0.427129 0.101922 1.006400
v 0.427129 0.079075 0.983376
v 0.424979 0.079846 1.005530
v 0.410650 0.079239 1.023002
v 0.420147 0.102032 1.023123
v 0.419849 0.079904 1.017866
v 0.420147 0.062352 0.983068
v 0.410650 0.062404 1.005973
v 0.419848 0.067545 1.005396
v -0.410650 0.169810 -1.030000
v -0.430000 0.170114 -0.983650
v -0.410650 0.216464 -0.982794
v -0.420147 0.169907 -1.023123
v -0.410650 0.192699 -1.023002
v -0.419849 0.192035 -1.017866
v -0.427129 0.192864 -0.983376
v -0.427129 0.170017 -1.006400
v -0.424979 0.192093 -1.005530
v -0.410650 0.209535 -1.005973
v -0.420147 0.209587 -0.983068
v -0.419848 0.204394 -1.005396
v -0.430000 0.101825 -0.983650
v -0.410650 0.102129 -1.030000
v -0.410650 0.055475 -0.982794
v -0.427129 0.101922 -1.006400
v -0.427129 0.079075 -0.983376
v -0.424979 0.079846 -1.005530
v -0.410650 0.079239 -1.023002
v -0.420147 0.102032 -1.023123
v -0.419849 0.079904 -1.017866
v -0.420147 0.062352 -0.983068
v -0.410650 0.062404 -1.005973
v -0.419848 0.067545 -1.005396
v -0.430000 0.170114 0.983650
v -0.410650 0.169810 1.030000
v -0.410650 0.216464 0.982794
v -0.427129 0.170017 1.006400
v -0.427129 0.192864 0.983376
v -0.424979 0.192093 1.005530
v -0.410650 0.192699 1.023002
v -0.420147 0.169907 1.023123
v -0.419849 0.192035 1.017866
v -0.420147 0.209587 0.983068
v -0.410650 0.209535 1.005973
v -0.419848 0.204394 1.005396
v -0.410650 0.055475 0.982794
v -0.410650 0.102129 1.030000
v -0.430000 0.101825 0.983650
v -0.410650 0.062404 1.005973
v -0.420147 0.062352 0.983068
v -0.419848 0.067545 1.005396
v -0.420147 0.102032 1.023123
v -0.410650 0.079239 1.023002
v -0.419849 0.079904 1.017866
v -0.427129 0.079075 0.983376
v -0.427129 0.101922 1.006400
v -0.424979 0.079846 1.005530
v 0.350899 0.115548 -1.007689
v 0.350899 0.068817 -0.960262
v 0.350899 0.092183 -1.001335
v 0.350899 0.075078 -0.983976
v -0.350899 0.068817 -0.960262
v -0.350899 0.115548 -1.007689
v -0.350899 0.075078 -0.983976
v -0.350899 0.092183 -1.001335
v 0.350899 0.156391 1.007689
v 0.350899 0.203121 0.960262
v 0.350899 0.179756 1.001335
v 0.350899 0.196861 0.983976
v -0.350899 0.203121 0.960262
v -0.350899 0.156391 1.007689
v -0.350899 0.196861 0.983976
v -0.350899 0.179756 1.001335
v -0.350899 0.115548 1.007689
v -0.350899 0.068817 0.960262
v -0.350899 0.092183 1.001335
v -0.350899 0.075078 0.983976
v 0.350899 0.068817 0.960262
v 0.350899 0.115548 1.007689
v 0.350899 0.075078 0.983976
v 0.350899 0.092183 1.001335
v -0.350899 0.156391 -1.007689
v -0.350899 0.203121 -0.960262
v -0.350899 0.179756 -1.001335
v -0.350899 0.196861 -0.983976
v 0.350899 0.203121 -0.960262
v 0.350899 0.156391 -1.007689
v 0.350899 0.196861 -0.983976
v 0.350899 0.179756 -1.001335
v 0.375308 0.055475 0.982654
v 0.375308 0.102179 1.030000
v 0.375308 0.061732 1.006327
v 0.375308 0.078827 1.023657
v 0.402654 0.102141 1.030000
v 0.402654 0.055475 0.982760
v 0.402654 0.078808 1.023671
v 0.402654 0.061727 1.006380
v 0.375308 0.216464 -0.982654
v 0.375308 0.169760 -1.030000
v 0.375308 0.210207 -1.006327
v 0.375308 0.193112 -1.023657
v 0.402654 0.169797 -1.030000
v 0.402654 0.216464 -0.982760
v 0.402654 0.193131 -1.023671
v 0.402654 0.210212 -1.006380
v 0.402654 0.055475 -0.982760
v 0.402654 0.102141 -1.030000
v 0.402654 0.061727 -1.006380
v 0.402654 0.078808 -1.023671
v 0.375308 0.102179 -1.030000
v 0.375308 0.055475 -0.982654
v 0.375308 0.078827 -1.023657
v 0.375308 0.061732 -1.006327
v 0.402654 0.216464 0.982760
v 0.402654 0.169797 1.030000
v 0.402654 0.210212 1.006380
v 0.402654 0.193131 1.023671
v 0.375308 0.169760 1.030000
v 0.375308 0.216464 0.982654
v 0.375308 0.193112 1.023657
v 0.375308 0.210207 1.006327
v -0.375308 0.055475 -0.982654
v -0.375308 0.102179 -1.030000
v -0.375308 0.061732 -1.006327
v -0.375308 0.078827 -1.023657
v -0.402654 0.102141 -1.030000
v -0.402654 0.055475 -0.982760
v -0.402654 0.078808 -1.023671
v -0.402654 0.061727 -1.006380
v -0.375308 0.216464 0.982654
v -0.375308 0.169760 1.030000
v -0.375308 0.210207 1.006327
v -0.375308 0.193112 1.023657
v -0.402654 0.169797 1.030000
v -0.402654 0.216464 0.982760
v -0.402654 0.193131 1.023671
v -0.402654 0.210212 1.006380
v -0.402654 0.055475 0.982760
v -0.402654 0.102141 1.030000
v -0.402654 0.061727 1.006380
v -0.402654 0.078808 1.023671
v -0.375308 0.102179 1.030000
v -0.375308 0.055475 0.982654
v -0.375308 0.078827 1.023657
v -0.375308 0.061732 1.006327
v -0.402654 0.216464 -0.982760
v -0.402654 0.169797 -1.030000
v -0.402654 0.210212 -1.006380
v -0.402654 0.193131 -1.023671
v -0.375308 0.169760 -1.030000
v -0.375308 0.216464 -0.982654
v -0.375308 0.193112 -1.023657
v -0.375308 0.210207 -1.006327
vt 0.144655 0.505729
vt 0.152778 0.505733
vt 0.152778 0.744267
vt 0.144655 0.744271
vt 0.291667 0.505883
vt 0.319444 0.505746
vt 0.319444 0.744254
vt 0.291667 0.744117
vt 0.847222 0.505733
vt 0.855345 0.505729
vt 0.855345 0.744271
vt 0.847222 0.744267
vt 0.644656 0.505729
vt 0.652778 0.505733
vt 0.652778 0.744267
vt 0.644655 0.744271
vt 0.446977 0.505625
vt 0.553023 0.505625
vt 0.553023 0.744375
vt 0.446977 0.744375
vt 0.180556 0.505746
vt 0.208333 0.505883
vt 0.208333 0.744117
vt 0.180556 0.744254
vt 0.680556 0.505746
vt 0.708333 0.505883
vt 0.708333 0.744117
vt 0.680556 0.744254
vt 0.347222 0.505733
vt 0.355345 0.505729
vt 0.355345 0.744271
vt 0.347222 0.744267
vt 0.819444 0.505746
vt 0.819444 0.744254
vt 0.446977 0.005625
vt 0.553023 0.005625
vt 0.553023 0.244375
vt 0.446977 0.244375
vt 0.791667 0.505883
vt 0.791667 0.744117
vt 0.125000 0.744304
vt 0.125000 0.505696
vt 0.375000 0.244304
vt 0.375000 0.005696
vt 0.411649 0.005658
vt 0.411649 0.244342
vt 0.635008 0.744304
vt 0.635008 0.505696
vt 0.588351 0.744342
vt 0.588351 0.505658
vt 0.864992 0.505696
vt 0.864992 0.744304
vt 0.875000 0.505658
vt 0.875000 0.744342
vt 0.625000 0.005658
vt 0.625000 0.244342
vt 0.364992 0.505696
vt 0.364992 0.744304
vt 0.411649 0.505658
vt 0.411649 0.744342
vt 0.447449 0.769656
vt 0.552550 0.769655
vt 0.552532 0.777778
vt 0.447468 0.777778
vt 0.461986 0.916667
vt 0.538014 0.916667
vt 0.552473 0.944444
vt 0.447526 0.944444
vt 0.447526 0.805555
vt 0.552474 0.805556
vt 0.538014 0.833333
vt 0.461986 0.833333
vt 0.447468 0.277778
vt 0.552532 0.277778
vt 0.552474 0.305556
vt 0.447526 0.305556
vt 0.447449 0.269655
vt 0.552550 0.269655
vt 0.447526 0.444444
vt 0.552474 0.444444
vt 0.552532 0.472222
vt 0.447468 0.472222
vt 0.538014 0.333333
vt 0.461986 0.333333
vt 0.461986 0.416667
vt 0.538014 0.416667
vt 0.447468 0.972222
vt 0.552532 0.972222
vt 0.552551 0.980344
vt 0.447449 0.980344
vt 0.552551 0.480344
vt 0.588096 0.480345
vt 0.587065 0.489689
vt 0.552701 0.489992
vt 0.625000 0.480345
vt 0.625000 0.489688
vt 0.635312 0.500000
vt 0.644655 0.500000
vt 0.587155 0.502970
vt 0.552872 0.502864
vt 0.587155 0.494900
vt 0.447449 0.480344
vt 0.447298 0.489992
vt 0.375000 0.489689
vt 0.375000 0.480344
vt 0.447128 0.502864
vt 0.412845 0.502970
vt 0.364688 0.502986
vt 0.355345 0.502916
vt 0.355344 0.500000
vt 0.364689 0.500000
vt 0.369900 0.502970
vt 0.552701 0.760008
vt 0.587065 0.760311
vt 0.588096 0.769656
vt 0.552872 0.747136
vt 0.587155 0.747030
vt 0.635312 0.750000
vt 0.644655 0.750000
vt 0.625000 0.769655
vt 0.625000 0.760312
vt 0.587155 0.755100
vt 0.447128 0.747136
vt 0.412845 0.747030
vt 0.447298 0.760008
vt 0.375000 0.760311
vt 0.375000 0.769655
vt 0.355345 0.750000
vt 0.355345 0.747084
vt 0.364688 0.747014
vt 0.364689 0.750000
vt 0.369900 0.747030
vt 0.552701 0.260008
vt 0.625000 0.260311
vt 0.625000 0.269655
vt 0.552872 0.247136
vt 0.625000 0.247030
vt 0.864688 0.502986
vt 0.875000 0.502970
vt 0.855345 0.502916
vt 0.855344 0.500000
vt 0.864689 0.500000
vt 0.447128 0.247136
vt 0.412845 0.247030
vt 0.447298 0.260008
vt 0.412936 0.260311
vt 0.411904 0.269655
vt 0.375000 0.269655
vt 0.375000 0.250000
vt 0.125000 0.502986
vt 0.144655 0.500000
vt 0.375000 0.247014
vt 0.412936 0.248527
vt 0.552872 0.002864
vt 0.625000 0.002970
vt 0.552701 0.000000
vt 0.625000 0.000000
vt 0.625000 0.980345
vt 0.625000 0.989689
vt 0.552701 1.000000
vt 0.855345 0.750000
vt 0.855345 0.747084
vt 0.864688 0.747014
vt 0.864689 0.750000
vt 0.875000 0.747030
vt 0.144655 0.750000
vt 0.125000 0.747014
vt 0.375000 0.980345
vt 0.411904 0.980344
vt 0.412935 1.000000
vt 0.375000 1.000000
vt 0.447298 1.000000
vt 0.447298 0.000000
vt 0.447128 0.002864
vt 0.412845 0.002970
vt 0.412935 0.000000
vt 0.375000 0.002986
vt 0.152778 0.500000
vt 0.375000 0.277778
vt 0.411234 0.277778
vt 0.847222 0.747133
vt 0.847222 0.750000
vt 0.625000 0.972222
vt 0.347222 0.747133
vt 0.347222 0.750000
vt 0.375000 0.777778
vt 0.652778 0.500000
vt 0.625000 0.472222
vt 0.588766 0.472222
vt 0.291021 0.502881
vt 0.318800 0.502812
vt 0.291667 0.500000
vt 0.316370 0.500000
vt 0.375000 0.441370
vt 0.375000 0.416667
vt 0.708333 0.750000
vt 0.684705 0.750000
vt 0.625000 0.809705
vt 0.625000 0.833333
vt 0.581862 0.834339
vt 0.589177 0.806559
vt 0.208333 0.750000
vt 0.184705 0.750000
vt 0.375000 0.940295
vt 0.375000 0.916667
vt 0.418138 0.915661
vt 0.410823 0.943441
vt 0.791021 0.502881
vt 0.818800 0.502812
vt 0.791667 0.500000
vt 0.816370 0.500000
vt 0.625000 0.308630
vt 0.625000 0.333333
vt 0.318800 0.747188
vt 0.291021 0.747119
vt 0.316370 0.750000
vt 0.291667 0.750000
vt 0.375000 0.833333
vt 0.375000 0.808630
vt 0.319444 0.747127
vt 0.319444 0.750000
vt 0.375000 0.805556
vt 0.684705 0.500000
vt 0.708333 0.500000
vt 0.625000 0.416667
vt 0.625000 0.440295
vt 0.589177 0.443441
vt 0.581862 0.415661
vt 0.680556 0.500000
vt 0.625000 0.444444
vt 0.588737 0.444444
vt 0.347222 0.502867
vt 0.347222 0.500000
vt 0.375000 0.472222
vt 0.319444 0.502873
vt 0.319444 0.500000
vt 0.375000 0.444444
vt 0.652778 0.750000
vt 0.625000 0.777778
vt 0.588766 0.777778
vt 0.680556 0.750000
vt 0.625000 0.805556
vt 0.588737 0.805556
vt 0.184705 0.500000
vt 0.208333 0.500000
vt 0.375000 0.333333
vt 0.375000 0.309705
vt 0.410823 0.306559
vt 0.418138 0.334339
vt 0.180556 0.500000
vt 0.375000 0.305556
vt 0.411263 0.305556
vt 0.818800 0.747188
vt 0.791021 0.747119
vt 0.816370 0.750000
vt 0.791667 0.750000
vt 0.625000 0.916667
vt 0.625000 0.941370
vt 0.819444 0.747127
vt 0.819444 0.750000
vt 0.625000 0.944444
vt 0.152778 0.750000
vt 0.375000 0.972222
vt 0.411234 0.972222
vt 0.180556 0.750000
vt 0.375000 0.944444
vt 0.411263 0.944444
vt 0.847222 0.502867
vt 0.847222 0.500000
vt 0.625000 0.277778
vt 0.819444 0.502873
vt 0.819444 0.500000
vt 0.625000 0.305556
vn -0.2991 -0.9459 -0.1259
vn -0.0116 -0.9911 -0.1328
vn -0.0116 -0.9911 0.1328
vn -0.2991 -0.9459 0.1259
vn -0.5235 -0.8496 -0.0645
vn -0.2938 -0.9452 -0.1426
vn -0.2938 -0.9452 0.1426
vn -0.5235 -0.8496 0.0645
vn -0.0116 0.9911 -0.1328
vn -0.2991 0.9459 -0.1259
vn -0.2991 0.9459 0.1259
vn -0.0116 0.9911 0.1328
vn 0.2991 0.9459 -0.1259
vn 0.0116 0.9911 -0.1328
vn 0.0116 0.9911 0.1328
vn 0.2991 0.9459 0.1259
vn 0.9964 -0.0598 -0.0597
vn 0.9964 0.0598 -0.0597
vn 0.9964 0.0598 0.0597
vn 0.9964 -0.0598 0.0597
vn 0.2938 -0.9452 -0.1426
vn 0.5235 -0.8496 -0.0645
vn 0.5235 -0.8496 0.0645
vn 0.2938 -0.9452 0.1426
vn -0.2938 0.9452 -0.1426
vn -0.5235 0.8496 -0.0645
vn -0.5235 0.8496 0.0645
vn -0.2938 0.9452 0.1426
vn 0.0116 -0.9911 -0.1328
vn 0.2991 -0.9459 -0.1259
vn 0.2991 -0.9459 0.1259
vn 0.0116 -0.9911 0.1328
vn 0.2938 0.9452 -0.1426
vn 0.2938 0.9452 0.1426
vn -0.9964 -0.0598 0.0597
vn -0.9964 0.0598 0.0597
vn -0.9964 0.0598 -0.0597
vn -0.9964 -0.0598 -0.0597
vn 0.5235 0.8496 -0.0645
vn 0.5235 0.8496 0.0645
vn -0.5604 -0.8199 0.1173
vn -0.5604 -0.8199 -0.1173
vn -0.9216 -0.3854 -0.0469
vn -0.9216 -0.3854 0.0469
vn -0.9654 -0.2553 0.0541
vn -0.9654 -0.2553 -0.0541
vn 0.5604 0.8199 0.1173
vn 0.5604 0.8199 -0.1173
vn 0.9216 0.3854 -0.0469
vn 0.9216 0.3854 0.0469
vn 0.9654 0.2553 0.0541
vn 0.9654 0.2553 -0.0541
vn -0.5604 0.8199 -0.1173
vn -0.5604 0.8199 0.1173
vn -0.9216 0.3854 0.0469
vn -0.9216 0.3854 -0.0469
vn -0.9654 0.2553 -0.0541
vn -0.9654 0.2553 0.0541
vn 0.5604 -0.8199 -0.1173
vn 0.5604 -0.8199 0.1173
vn 0.9216 -0.3854 0.0469
vn 0.9216 -0.3854 -0.0469
vn 0.9654 -0.2553 -0.0541
vn 0.9654 -0.2553 0.0541
vn 0.2994 -0.1289 0.9454
vn 0.2994 0.1289 0.9454
vn 0.0118 0.1360 0.9906
vn 0.0118 -0.1360 0.9906
vn 0.6951 -0.0759 0.7149
vn 0.6951 0.0759 0.7149
vn 0.7028 0.1101 0.7028
vn 0.7028 -0.1101 0.7028
vn -0.7028 -0.1101 0.7028
vn -0.7028 0.1101 0.7028
vn -0.6951 0.0759 0.7149
vn -0.6951 -0.0759 0.7149
vn -0.0118 -0.1360 -0.9906
vn -0.0118 0.1360 -0.9906
vn 0.0003 0.1320 -0.9912
vn 0.0003 -0.1320 -0.9912
vn -0.2994 -0.1289 -0.9454
vn -0.2994 0.1289 -0.9454
vn -0.0003 -0.1320 -0.9912
vn -0.0003 0.1320 -0.9912
vn 0.0118 0.1360 -0.9906
vn 0.0118 -0.1360 -0.9906
vn 0.7028 -0.1101 -0.7028
vn 0.7028 0.1101 -0.7028
vn 0.6951 0.0759 -0.7149
vn 0.6951 -0.0759 -0.7149
vn -0.6951 -0.0759 -0.7149
vn -0.6951 0.0759 -0.7149
vn -0.7028 0.1101 -0.7028
vn -0.7028 -0.1101 -0.7028
vn -0.0003 0.1320 0.9912
vn -0.0003 -0.1320 0.9912
vn -0.0118 -0.1360 0.9906
vn -0.0118 0.1360 0.9906
vn -0.2994 0.1289 0.9454
vn -0.2994 -0.1289 0.9454
vn 0.0003 -0.1320 0.9912
vn 0.0003 0.1320 0.9912
vn 0.2994 0.1289 -0.9454
vn 0.2801 0.4783 -0.8323
vn 0.4752 0.4728 -0.7421
vn 0.5616 0.1186 -0.8189
vn 0.2796 0.8365 -0.4712
vn 0.4740 0.7462 -0.4674
vn 0.9402 0.2416 -0.2399
vn 0.9058 0.3803 -0.1867
vn 0.9654 0.0547 -0.2549
vn 0.9217 0.0481 -0.3848
vn 0.9062 0.1889 -0.3784
vn 0.2994 -0.1289 -0.9454
vn 0.5616 -0.1186 -0.8189
vn 0.4752 -0.4728 -0.7421
vn 0.2801 -0.4783 -0.8323
vn 0.9217 -0.0481 -0.3848
vn 0.9654 -0.0547 -0.2549
vn 0.9402 -0.2416 -0.2399
vn 0.9062 -0.1889 -0.3784
vn 0.9058 -0.3803 -0.1867
vn 0.2796 -0.8365 -0.4712
vn 0.4740 -0.7463 -0.4674
vn 0.5616 0.1186 0.8189
vn 0.4752 0.4728 0.7421
vn 0.2801 0.4783 0.8323
vn 0.9217 0.0481 0.3848
vn 0.9654 0.0547 0.2549
vn 0.9402 0.2416 0.2399
vn 0.9062 0.1889 0.3784
vn 0.9058 0.3803 0.1867
vn 0.2796 0.8365 0.4712
vn 0.4740 0.7462 0.4674
vn 0.9654 -0.0547 0.2549
vn 0.9402 -0.2416 0.2399
vn 0.9217 -0.0481 0.3848
vn 0.9062 -0.1889 0.3784
vn 0.2801 -0.4783 0.8323
vn 0.4752 -0.4728 0.7421
vn 0.5616 -0.1186 0.8189
vn 0.2796 -0.8365 0.4712
vn 0.4740 -0.7462 0.4674
vn 0.9058 -0.3803 0.1867
vn -0.5616 0.1186 -0.8189
vn -0.4752 0.4728 -0.7421
vn -0.2801 0.4783 -0.8323
vn -0.9217 0.0481 -0.3848
vn -0.9654 0.0547 -0.2549
vn -0.9402 0.2416 -0.2399
vn -0.9062 0.1889 -0.3784
vn -0.9058 0.3803 -0.1867
vn -0.2796 0.8365 -0.4712
vn -0.4740 0.7462 -0.4674
vn -0.9654 -0.0547 -0.2549
vn -0.9402 -0.2416 -0.2399
vn -0.9217 -0.0481 -0.3848
vn -0.9062 -0.1889 -0.3784
vn -0.2801 -0.4783 -0.8323
vn -0.4752 -0.4728 -0.7421
vn -0.5616 -0.1186 -0.8189
vn -0.2796 -0.8365 -0.4712
vn -0.4740 -0.7462 -0.4674
vn -0.9058 -0.3803 -0.1867
vn -0.9654 0.0547 0.2549
vn -0.9402 0.2416 0.2399
vn -0.9217 0.0481 0.3848
vn -0.9062 0.1889 0.3784
vn -0.2801 0.4783 0.8323
vn -0.4752 0.4728 0.7421
vn -0.5616 0.1186 0.8189
vn -0.2796 0.8365 0.4712
vn -0.4740 0.7462 0.4674
vn -0.9058 0.3803 0.1867
vn -0.2796 -0.8365 0.4712
vn -0.4740 -0.7463 0.4674
vn -0.2801 -0.4783 0.8323
vn -0.4752 -0.4728 0.7421
vn -0.5616 -0.1186 0.8189
vn -0.9217 -0.0481 0.3848
vn -0.9654 -0.0547 0.2549
vn -0.9402 -0.2416 0.2399
vn -0.9062 -0.1889 0.3784
vn -0.9058 -0.3803 0.1867
vn -0.0362 -0.8658 -0.4991
vn -0.0364 -0.5072 -0.8610
vn -0.0362 0.8658 0.4991
vn -0.0364 0.5072 0.8610
vn 0.0362 -0.8658 0.4991
vn 0.0364 -0.5072 0.8610
vn 0.0362 0.8658 -0.4991
vn 0.0364 0.5072 -0.8610
vn -0.6643 -0.6741 -0.3230
vn -0.6904 -0.6091 -0.3904
vn -0.7292 -0.3444 -0.5913
vn -0.7292 -0.3459 -0.5904
vn -0.6643 0.6741 0.3230
vn -0.6904 0.6091 0.3904
vn -0.7292 0.3444 0.5913
vn -0.7292 0.3459 0.5904
vn 0.6643 -0.6741 0.3230
vn 0.6904 -0.6091 0.3904
vn 0.7292 -0.3444 0.5913
vn 0.7292 -0.3459 0.5904
vn 0.6643 0.6741 -0.3230
vn 0.6904 0.6091 -0.3904
vn 0.7292 0.3444 -0.5913
vn 0.7292 0.3459 -0.5904
vn -0.6904 -0.6091 0.3904
vn -0.6643 -0.6741 0.3230
vn -0.7292 -0.3459 0.5904
vn -0.7292 -0.3444 0.5913
vn -0.0010 -0.8686 0.4956
vn -0.0012 -0.7117 0.7025
vn -0.0005 -0.2620 0.9651
vn -0.6904 0.6091 -0.3904
vn -0.6643 0.6741 -0.3230
vn -0.7292 0.3459 -0.5904
vn -0.7292 0.3444 -0.5913
vn -0.0010 0.8686 -0.4956
vn -0.0012 0.7117 -0.7025
vn -0.0005 0.2620 -0.9651
vn 0.0362 -0.8658 -0.4991
vn 0.0364 -0.5072 -0.8610
vn -0.0010 -0.8686 -0.4956
vn -0.0012 -0.7117 -0.7025
vn -0.0005 -0.2620 -0.9651
vn 0.0362 0.8658 0.4991
vn 0.0364 0.5072 0.8610
vn -0.0010 0.8686 0.4956
vn -0.0012 0.7117 0.7025
vn -0.0005 0.2620 0.9651
vn 0.6904 -0.6091 -0.3904
vn 0.6643 -0.6741 -0.3230
vn 0.7292 -0.3459 -0.5904
vn 0.7292 -0.3444 -0.5913
vn 0.0010 -0.8686 -0.4956
vn 0.0012 -0.7117 -0.7025
vn 0.0005 -0.2620 -0.9651
vn 0.6904 0.6091 0.3904
vn 0.6643 0.6741 0.3230
vn 0.7292 0.3459 0.5904
vn 0.7292 0.3444 0.5913
vn 0.0010 0.8686 0.4956
vn 0.0012 0.7117 0.7025
vn 0.0005 0.2620 0.9651
vn -0.0362 -0.8658 0.4991
vn -0.0364 -0.5072 0.8610
vn 0.0010 -0.8686 0.4956
vn 0.0012 -0.7117 0.7025
vn 0.0005 -0.2620 0.9651
vn -0.0362 0.8658 -0.4991
vn -0.0364 0.5072 -0.8610
vn 0.0010 0.8686 -0.4956
vn 0.0012 0.7117 -0.7025
vn 0.0005 0.2620 -0.9651
usemtl metallic_white
s 1
f 63/1/1 166/2/2 177/3/3 85/4/4
f 98/5/5 150/6/6 129/7/7 117/8/8
f 185/9/9 51/10/10 75/11/11 174/12/12
f 2/13/13 142/14/14 153/15/15 27/16/16
f 14/17/17 3/18/18 26/19/19 37/20/20
f 161/21/21 101/22/22 114/23/23 182/24/24
f 137/25/25 125/26/26 106/27/27 158/28/28
f 145/29/29 15/30/30 39/31/31 134/32/32
f 142/14/14 137/25/25 158/28/28 153/15/15
f 190/33/33 185/9/9 174/12/12 169/34/34
f 87/35/35 73/36/36 50/37/37 61/38/38
f 166/2/2 161/21/21 182/24/24 177/3/3
f 122/39/39 190/33/33 169/34/34 109/40/40
f 150/6/6 145/29/29 134/32/32 129/7/7
f 63/1/1 85/4/4 89/41/41 70/42/42
f 70/43/43 89/44/44 94/45/45 65/46/46
f 65/46/46 94/45/45 87/35/35 61/38/38
f 2/13/13 27/16/16 35/47/47 7/48/48
f 7/48/49 35/47/50 31/49/51 11/50/52
f 11/50/52 31/49/51 26/19/19 3/18/18
f 75/11/11 51/10/10 59/51/53 82/52/54
f 82/52/55 59/51/56 55/53/57 77/54/58
f 77/55/58 55/56/57 50/37/37 73/36/36
f 39/31/31 15/30/30 23/57/59 46/58/60
f 46/58/61 23/57/62 19/59/63 41/60/64
f 41/60/64 19/59/63 14/17/17 37/20/20
usemtl plastic_black
f 38/61/65 25/62/66 154/63/67 133/64/68
f 113/65/69 110/66/70 170/67/71 181/68/72
f 130/69/73 157/70/74 105/71/75 118/72/76
f 165/73/77 186/74/78 189/75/79 162/76/80
f 62/77/81 49/78/82 186/74/78 165/73/77
f 149/79/83 138/80/84 141/81/85 146/82/86
f 162/76/87 189/75/88 121/83/89 102/84/90
f 97/85/91 126/86/92 138/80/93 149/79/94
f 133/64/68 154/63/67 157/70/95 130/69/96
f 178/87/97 173/88/98 74/89/99 86/90/100
f 181/68/101 170/67/102 173/88/98 178/87/97
f 1/91/103 4/92/104 6/93/105 5/94/106
f 4/92/104 8/95/107 9/96/108 6/93/105
f 2/13/13 7/48/48 9/97/108 8/98/107
f 7/48/49 11/50/52 12/99/109 9/97/110
f 3/18/18 10/100/111 12/99/109 11/50/52
f 10/100/111 5/94/112 6/93/113 12/99/109
f 6/93/113 9/96/110 12/101/109
f 13/102/114 16/103/115 18/104/116 17/105/117
f 16/103/118 20/106/119 21/107/120 18/104/121
f 14/17/17 19/59/63 21/107/120 20/106/119
f 19/59/63 23/57/62 24/108/122 21/107/120
f 15/30/30 22/109/123 24/108/124 23/57/59
f 22/109/123 17/110/117 18/111/116 24/108/124
f 18/111/121 21/112/120 24/108/122
f 25/62/66 28/113/125 30/114/126 29/115/127
f 28/113/128 32/116/129 33/117/130 30/114/131
f 26/19/19 31/49/51 33/117/130 32/116/129
f 31/49/51 35/47/50 36/118/132 33/117/130
f 27/16/16 34/119/133 36/118/134 35/47/47
f 34/120/133 29/115/127 30/114/126 36/121/134
f 30/114/131 33/122/130 36/121/132
f 37/20/20 40/123/135 42/124/136 41/60/64
f 40/123/135 44/125/137 45/126/138 42/124/136
f 38/61/65 43/127/139 45/126/140 44/125/141
f 43/128/139 47/129/142 48/130/143 45/131/140
f 39/31/31 46/58/60 48/130/143 47/129/142
f 46/58/61 41/60/64 42/124/136 48/130/144
f 42/132/136 45/131/138 48/130/144
f 49/78/82 52/133/145 54/134/146 53/135/147
f 52/133/148 56/136/149 57/137/150 54/134/151
f 50/37/37 55/56/57 57/137/150 56/136/149
f 55/53/57 59/51/56 60/138/152 57/139/150
f 51/10/10 58/140/153 60/138/154 59/51/53
f 58/140/153 53/141/147 54/142/146 60/138/154
f 54/142/151 57/139/150 60/138/152
f 61/38/38 64/143/155 66/144/156 65/46/46
f 64/143/155 68/145/157 69/146/158 66/144/156
f 62/77/81 67/147/159 69/146/160 68/145/161
f 67/147/159 71/148/162 72/149/163 69/146/160
f 63/1/1 70/42/42 72/150/163 71/151/162
f 70/43/43 65/46/46 66/144/156 72/152/164
f 66/144/156 69/153/158 72/152/164
f 73/36/36 76/154/165 78/155/166 77/55/58
f 76/154/165 80/156/167 81/157/168 78/155/166
f 74/89/99 79/158/169 81/159/170 80/160/171
f 79/161/169 83/162/172 84/163/173 81/164/170
f 75/11/11 82/52/54 84/163/173 83/162/172
f 82/52/55 77/54/58 78/165/166 84/163/174
f 78/165/166 81/164/168 84/163/174
f 85/4/4 88/166/175 90/167/176 89/41/41
f 88/168/175 92/169/177 93/170/178 90/171/176
f 86/90/100 91/172/179 93/170/178 92/169/177
f 91/173/180 95/174/181 96/175/182 93/176/183
f 87/35/35 94/45/45 96/175/182 95/174/181
f 94/45/45 89/44/44 90/177/184 96/175/182
f 90/177/184 93/176/183 96/175/182
f 166/2/2 63/1/1 71/151/162 168/178/185
f 168/179/185 71/148/162 67/147/159 167/180/186
f 167/180/186 67/147/159 62/77/81 165/73/77
f 3/18/18 14/17/17 20/106/119 10/100/111
f 10/100/111 20/106/119 16/103/118 5/94/112
f 5/94/106 16/103/115 13/102/114 1/91/103
f 86/90/100 74/89/99 80/160/171 91/172/179
f 91/173/180 80/156/167 76/154/165 95/174/181
f 95/174/181 76/154/165 73/36/36 87/35/35
f 25/62/66 38/61/65 44/125/141 28/113/125
f 28/113/128 44/125/137 40/123/135 32/116/129
f 32/116/129 40/123/135 37/20/20 26/19/19
f 49/78/82 62/77/81 68/145/161 52/133/145
f 52/133/148 68/145/157 64/143/155 56/136/149
f 56/136/149 64/143/155 61/38/38 50/37/37
f 174/12/12 75/11/11 83/162/172 176/181/187
f 176/181/187 83/162/172 79/161/169 175/182/188
f 175/183/188 79/158/169 74/89/99 173/88/98
f 134/32/32 39/31/31 47/129/142 136/184/189
f 136/184/189 47/129/142 43/128/139 135/185/190
f 135/186/190 43/127/139 38/61/65 133/64/68
f 142/14/14 2/13/13 8/98/107 144/187/191
f 144/188/191 8/95/107 4/92/104 143/189/192
f 143/189/192 4/92/104 1/91/103 141/81/85
f 150/6/6 98/5/5 100/190/193 152/191/194
f 152/191/194 100/190/193 99/192/195 151/193/196
f 151/194/196 99/195/195 97/85/91 149/79/94
f 158/28/28 106/27/27 108/196/197 160/197/198
f 160/198/198 108/199/197 107/200/199 159/201/200
f 159/201/200 107/200/199 105/71/75 157/70/74
f 182/24/24 114/23/23 116/202/201 184/203/202
f 184/204/202 116/205/201 115/206/203 183/207/204
f 183/207/204 115/206/203 113/65/69 181/68/72
f 190/33/33 122/39/39 124/208/205 192/209/206
f 192/209/206 124/208/205 123/210/207 191/211/208
f 191/212/208 123/213/207 121/83/89 189/75/88
f 117/8/8 129/7/7 131/214/209 119/215/210
f 119/215/210 131/214/209 132/216/211 120/217/212
f 120/218/212 132/219/211 130/69/73 118/72/76
f 129/7/7 134/32/32 136/184/189 131/220/213
f 131/220/213 136/184/189 135/185/190 132/221/214
f 132/222/215 135/186/190 133/64/68 130/69/96
f 125/26/26 137/25/25 139/223/216 127/224/217
f 127/225/217 139/226/216 140/227/218 128/228/219
f 128/228/219 140/227/218 138/80/93 126/86/92
f 137/25/25 142/14/14 144/187/191 139/229/220
f 139/230/220 144/188/191 143/189/192 140/231/221
f 140/231/222 143/189/192 141/81/85 138/80/84
f 15/30/30 145/29/29 147/232/223 22/109/123
f 22/109/123 147/232/223 148/233/224 17/110/117
f 17/105/117 148/234/224 146/82/86 13/102/114
f 145/29/29 150/6/6 152/235/225 147/232/223
f 147/232/223 152/235/225 151/236/226 148/233/224
f 148/234/224 151/237/227 149/79/83 146/82/86
f 27/16/16 153/15/15 155/238/228 34/119/133
f 34/120/133 155/239/228 156/240/229 29/115/127
f 29/115/127 156/240/229 154/63/67 25/62/66
f 153/15/15 158/28/28 160/241/230 155/238/228
f 155/239/228 160/242/230 159/243/231 156/240/229
f 156/240/229 159/243/232 157/70/95 154/63/67
f 101/22/22 161/21/21 163/244/233 103/245/234
f 103/246/234 163/247/233 164/248/235 104/249/236
f 104/249/236 164/248/235 162/76/87 102/84/90
f 161/21/21 166/2/2 168/178/185 163/250/237
f 163/251/237 168/179/185 167/180/186 164/252/238
f 164/252/239 167/180/186 165/73/77 162/76/80
f 109/40/40 169/34/34 171/253/240 111/254/241
f 111/254/241 171/253/240 172/255/242 112/256/243
f 112/257/243 172/258/242 170/67/71 110/66/70
f 169/34/34 174/12/12 176/181/187 171/259/244
f 171/259/244 176/181/187 175/182/188 172/260/245
f 172/261/246 175/183/188 173/88/98 170/67/102
f 85/4/4 177/3/3 179/262/247 88/166/175
f 88/168/175 179/263/247 180/264/248 92/169/177
f 92/169/177 180/264/248 178/87/97 86/90/100
f 177/3/3 182/24/24 184/265/249 179/262/247
f 179/263/247 184/266/249 183/267/250 180/264/248
f 180/264/248 183/267/251 181/68/101 178/87/97
f 51/10/10 185/9/9 187/268/252 58/140/153
f 58/140/153 187/268/252 188/269/253 53/141/147
f 53/135/147 188/270/253 186/74/78 49/78/82
f 185/9/9 190/33/33 192/271/254 187/268/252
f 187/268/252 192/271/254 191/272/255 188/269/253
f 188/270/253 191/273/256 189/75/79 186/74/78
f 146/82/86 141/81/85 1/91/103 13/102/114
o Cube.001
v 0.120713 0.263047 -1.006910
v -0.120713 0.263047 -1.006910
v -0.120713 0.322595 -0.970607
v 0.120713 0.322595 -0.970607
v -0.120713 0.300452 -0.990285
v 0.120713 0.300452 -0.990285
v 0.101021 0.263047 -1.006910
v -0.101021 0.263047 -1.006910
v 0.101021 0.322595 -0.970607
v -0.101021 0.322595 -0.970607
v 0.101021 0.300452 -0.990285
v -0.101021 0.300452 -0.990285
v -0.396407 0.219071 -0.397524
v -0.396407 0.224334 -0.392260
v -0.403262 0.224334 -0.397524
v -0.403262 0.257709 -0.397524
v -0.396407 0.256069 -0.392260
v -0.396414 0.262807 -0.397432
v -0.403262 0.224334 -1.005649
v -0.396407 0.224306 -1.010944
v -0.396407 0.219071 -1.006226
v -0.120713 0.224306 -1.010944
v -0.120713 0.219071 -1.006225
v 0.396407 0.219071 -0.397524
v 0.403262 0.224334 -0.397524
v 0.396407 0.224334 -0.392260
v 0.396414 0.262808 -0.397432
v 0.396407 0.256069 -0.392260
v 0.403262 0.257709 -0.397524
v 0.403262 0.224334 -1.005649
v 0.396407 0.219071 -1.006226
v 0.396407 0.224306 -1.010944
v 0.120713 0.219071 -1.006225
v 0.120713 0.224306 -1.010944
v -0.396418 0.356906 -0.910090
v -0.403262 0.353719 -0.904399
v -0.396421 0.358612 -0.900131
v -0.403262 0.261672 -1.001761
v -0.396407 0.263047 -1.006910
v 0.403262 0.261672 -1.001761
v 0.396407 0.263047 -1.006910
v 0.396418 0.356906 -0.910090
v 0.396421 0.358612 -0.900131
v 0.403262 0.353719 -0.904399
v -0.120713 0.219071 -0.397524
v -0.120713 0.224334 -0.392260
v 0.120713 0.219071 -0.397524
v 0.120713 0.224334 -0.392260
v 0.127562 0.253573 -0.397383
v 0.115659 0.249693 -0.397448
v 0.120713 0.246342 -0.392260
v -0.120713 0.246342 -0.392260
v -0.115659 0.249693 -0.397448
v -0.127562 0.253573 -0.397383
v -0.127554 0.371929 -0.900180
v -0.115659 0.368605 -0.900116
v -0.120713 0.370106 -0.909641
v 0.120713 0.370106 -0.909641
v 0.115659 0.368605 -0.900116
v 0.127554 0.371930 -0.900180
v -0.396407 0.322595 -0.970607
v -0.403262 0.318437 -0.967260
v 0.403262 0.318437 -0.967260
v 0.396407 0.322595 -0.970607
v 0.396407 0.300452 -0.990285
v 0.403262 0.297567 -0.985807
v -0.396407 0.300452 -0.990285
v -0.403262 0.297567 -0.985807
v -0.101021 0.219071 -0.397524
v -0.101021 0.224334 -0.392260
v 0.101021 0.224334 -0.392260
v 0.101021 0.219071 -0.397524
v 0.101021 0.219071 -1.006225
v 0.101021 0.224306 -1.010944
v -0.101021 0.224306 -1.010944
v -0.101021 0.219071 -1.006225
v 0.106075 0.242763 -0.397448
v 0.094165 0.239093 -0.397383
v 0.101021 0.232086 -0.392260
v -0.106075 0.242763 -0.397448
v -0.101021 0.232086 -0.392260
v -0.094165 0.239093 -0.397383
v -0.106075 0.361675 -0.900116
v -0.094165 0.358036 -0.900181
v -0.101021 0.356651 -0.909928
v 0.106075 0.361675 -0.900116
v 0.101021 0.356651 -0.909928
v 0.094165 0.358036 -0.900181
vt 0.263889 0.502125
vt 0.291667 0.502125
vt 0.291667 0.747875
vt 0.263889 0.747875
vt 0.406036 0.752022
vt 0.591088 0.752022
vt 0.581289 0.833333
vt 0.414815 0.833333
vt 0.383887 0.416667
vt 0.449649 0.416667
vt 0.449649 0.497978
vt 0.383887 0.497978
vt 0.793685 0.544943
vt 0.872982 0.544953
vt 0.872980 0.747917
vt 0.793686 0.747927
vt 0.384101 0.502220
vt 0.446451 0.502586
vt 0.491731 0.512407
vt 0.531625 0.522134
vt 0.615179 0.543414
vt 0.595905 0.747876
vt 0.403962 0.747876
vt 0.414815 0.916667
vt 0.581289 0.916667
vt 0.591088 0.997978
vt 0.406036 0.997978
vt 0.619176 0.416667
vt 0.618636 0.497980
vt 0.537324 0.497978
vt 0.537324 0.416667
vt 0.383887 0.252022
vt 0.449649 0.252022
vt 0.449649 0.333333
vt 0.383887 0.333333
vt 0.619176 0.333333
vt 0.618790 0.361111
vt 0.537324 0.361111
vt 0.537324 0.333333
vt 0.493487 0.416667
vt 0.493487 0.497978
vt 0.493487 0.388889
vt 0.449649 0.388889
vt 0.403962 0.002124
vt 0.595906 0.002124
vt 0.615179 0.206586
vt 0.531625 0.227866
vt 0.491731 0.237593
vt 0.446451 0.247414
vt 0.384101 0.247780
vt 0.383887 0.388889
vt 0.627018 0.544953
vt 0.706315 0.544943
vt 0.706314 0.747927
vt 0.627020 0.747917
vt 0.547974 0.861111
vt 0.444953 0.861111
vt 0.208333 0.502125
vt 0.236111 0.502125
vt 0.236111 0.747875
vt 0.208333 0.747875
vt 0.618636 0.252019
vt 0.537324 0.252022
vt 0.493487 0.333333
vt 0.493487 0.252022
vt 0.444953 0.888889
vt 0.547974 0.888889
vt 0.537324 0.388889
vt 0.493487 0.361111
vt 0.618790 0.388889
vt 0.372978 0.502125
vt 0.372978 0.747875
vt 0.737053 0.544938
vt 0.762946 0.544938
vt 0.762946 0.747932
vt 0.737053 0.747932
vt 0.715462 0.544964
vt 0.728982 0.544964
vt 0.728982 0.747906
vt 0.715462 0.747906
vt 0.383887 0.361111
vt 0.449649 0.361111
vt 0.771018 0.544964
vt 0.784538 0.544964
vt 0.784537 0.747906
vt 0.771018 0.747906
vt 0.127022 0.747875
vt 0.127022 0.750000
vt 0.125000 0.747875
vt 0.599650 1.000000
vt 0.625000 0.997997
vt 0.125000 0.502358
vt 0.127022 0.500220
vt 0.127022 0.502125
vt 0.375000 0.747875
vt 0.372978 0.750000
vt 0.625000 0.752003
vt 0.599650 0.750000
vt 0.375000 0.502358
vt 0.372978 0.500220
vt 0.618771 0.208653
vt 0.625000 0.205067
vt 0.618771 0.541348
vt 0.625000 0.544933
vt 0.708333 0.747910
vt 0.713632 0.750000
vt 0.786368 0.750000
vt 0.791667 0.747910
vt 0.791667 0.544970
vt 0.788567 0.542870
vt 0.711433 0.542870
vt 0.708333 0.544970
vt 0.625000 0.861111
vt 0.625000 0.862054
vt 0.625000 0.888889
vt 0.625000 0.887946
vt 0.763889 0.544634
vt 0.763889 0.542870
vt 0.736111 0.544634
vt 0.736111 0.542870
vt 0.405602 1.000000
vt 0.625000 0.831292
vt 0.291667 0.750000
vt 0.263889 0.750000
vt 0.127022 0.500000
vt 0.208333 0.500000
vt 0.208333 0.750000
vt 0.236111 0.500000
vt 0.291667 0.500000
vt 0.372978 0.500000
vt 0.625000 0.918708
vt 0.537324 0.228565
vt 0.626951 0.542870
vt 0.708248 0.542870
vt 0.492611 0.500000
vt 0.450543 0.500000
vt 0.625000 0.002070
vt 0.625000 0.897143
vt 0.625000 0.910663
vt 0.791752 0.542870
vt 0.873049 0.542870
vt 0.493487 0.239282
vt 0.537324 0.521435
vt 0.493487 0.510718
vt 0.450543 0.250000
vt 0.492611 0.250000
vt 0.236111 0.750000
vt 0.263889 0.500000
vt 0.625000 0.839337
vt 0.625000 0.852857
vn 0.0000 -1.0000 0.0000
vn 0.2879 -0.3489 0.8918
vn 0.2731 0.2838 0.9192
vn -0.1504 0.3895 0.9087
vn -0.0000 0.0000 1.0000
vn 0.0000 0.1036 -0.9946
vn -0.0000 0.2580 -0.9661
vn 0.3149 0.2449 -0.9170
vn 0.3146 0.0983 -0.9441
vn 0.0936 0.9948 0.0400
vn -0.3119 0.9497 0.0278
vn -0.2768 0.8263 0.4905
vn 0.1140 0.8503 0.5137
vn 1.0000 0.0000 0.0000
vn 0.1504 0.3895 0.9087
vn -0.2731 0.2838 0.9192
vn -0.2879 -0.3489 0.8918
vn -0.2096 0.9211 -0.3281
vn 0.3177 0.8756 -0.3638
vn 0.3220 0.7228 -0.6114
vn -0.0634 0.7508 -0.6574
vn -0.3146 0.0983 -0.9441
vn -0.3149 0.2449 -0.9170
vn 0.2096 0.9211 -0.3281
vn 0.2149 0.8972 -0.3859
vn 0.0686 0.7639 -0.6417
vn 0.0634 0.7508 -0.6574
vn -0.0000 0.5416 -0.8406
vn 0.3150 0.5141 -0.7978
vn -1.0000 0.0000 0.0000
vn 0.3119 0.9497 0.0278
vn -0.0936 0.9948 0.0400
vn -0.1140 0.8503 0.5137
vn 0.2768 0.8263 0.4905
vn -0.0675 0.2318 0.9704
vn -0.3177 0.8756 -0.3638
vn -0.3220 0.7228 -0.6114
vn -0.3150 0.5141 -0.7978
vn 0.0675 0.2318 0.9704
vn -0.0686 0.7639 -0.6417
vn -0.2149 0.8972 -0.3859
vn 0.3146 -0.9492 0.0000
vn 0.2879 -0.8918 0.3489
vn -0.1215 0.9925 0.0131
vn 0.1215 0.9925 0.0131
vn 0.1411 0.9634 0.2279
vn -0.1411 0.9634 0.2279
vn -0.4533 0.8896 0.0562
vn -0.4723 0.8814 0.0003
vn -0.3998 0.7414 0.5389
vn -0.4111 0.7795 0.4727
vn 0.4723 0.8814 0.0003
vn 0.4533 0.8896 0.0562
vn 0.4111 0.7795 0.4727
vn 0.3998 0.7414 0.5389
vn -0.2879 -0.8918 0.3489
vn -0.6766 -0.5207 0.5207
vn -0.6318 0.4957 0.5959
vn -0.4994 -0.5800 -0.6435
vn -0.2185 -0.6533 -0.7249
vn 0.6766 -0.5207 0.5207
vn 0.6318 0.4957 0.5959
vn 0.4994 -0.5800 -0.6435
vn 0.2185 -0.6533 -0.7249
vn -0.6010 0.7886 -0.1299
vn 0.6010 0.7886 -0.1299
vn -0.0497 0.5572 0.8289
vn 0.0497 0.5572 0.8289
vn -0.3146 -0.9492 0.0000
vn -0.6090 -0.7932 0.0000
vn -0.0000 -0.7071 0.7071
vn 0.0000 -0.6695 -0.7428
vn 0.6090 -0.7932 0.0000
vn -0.6200 0.6102 -0.4933
vn 0.6136 0.4277 -0.6638
vn 0.6137 0.2037 -0.7628
vn -0.6090 0.0821 -0.7889
vn -0.6137 0.2037 -0.7628
vn 0.6090 0.0821 -0.7889
vn -0.6136 0.4277 -0.6638
vn 0.6200 0.6102 -0.4933
usemtl plastic_black
s 1
f 265/274/257 225/275/257 239/276/257 264/277/257
f 218/278/258 220/279/259 243/280/260 240/281/261
f 226/282/262 193/283/263 233/284/264 224/285/265
f 247/286/266 229/287/267 210/288/268 246/289/269
f 222/290/270 232/291/270 258/292/270 255/293/270 236/294/270 221/295/270 217/296/270
f 238/297/261 244/298/271 209/299/272 206/300/273
f 250/301/274 234/302/275 256/303/276 196/304/277
f 212/305/278 231/306/279 194/307/263 214/308/262
f 249/309/280 277/310/281 202/311/282 195/312/283
f 198/313/284 257/314/285 233/284/264 193/283/263
f 203/315/284 198/313/284 193/283/263 199/316/263
f 207/317/286 208/318/286 228/319/286 254/320/286 260/321/286 230/322/286 211/323/286
f 266/324/262 199/316/263 193/283/263 226/282/262
f 235/325/287 252/326/288 241/327/289 219/328/290
f 240/281/261 243/280/260 271/329/291 263/330/261
f 215/331/257 268/332/257 261/333/257 237/334/257
f 227/335/292 249/309/280 195/312/283 253/336/293
f 253/336/293 195/312/283 197/337/284 259/338/294
f 259/338/294 197/337/284 194/307/263 231/306/279
f 262/339/261 273/340/295 244/298/271 238/297/261
f 201/341/296 196/304/277 198/313/284 203/315/284
f 196/304/277 256/303/276 257/314/285 198/313/284
f 268/332/257 265/274/257 264/277/257 261/333/257
f 195/312/283 202/311/282 204/342/284 197/337/284
f 202/311/282 201/341/296 203/315/284 204/342/284
f 279/343/297 250/301/274 196/304/277 201/341/296
f 225/275/257 223/344/298 216/345/299 239/276/257
f 280/346/300 276/347/301 274/348/302 270/349/303
f 251/350/304 278/351/305 269/352/306 242/353/307
f 267/354/262 200/355/263 199/316/263 266/324/262
f 214/308/262 194/307/263 200/355/263 267/354/262
f 263/330/261 271/329/291 273/340/295 262/339/261
f 197/337/284 204/342/284 200/355/263 194/307/263
f 204/342/284 203/315/284 199/316/263 200/355/263
f 275/356/308 248/357/309 245/358/310 272/359/311
f 277/310/281 279/343/297 201/341/296 202/311/282
f 205/360/312 206/361/273 207/362/313
f 208/363/314 209/299/272 210/364/268
f 211/365/315 212/366/316 213/367/316
f 216/345/299 217/368/317 218/369/258
f 219/370/290 220/279/259 221/371/318
f 222/372/319 223/344/320 224/373/320
f 227/374/292 228/319/321 229/375/267
f 234/376/275 235/377/287 236/294/322
f 241/378/289 242/353/307 243/379/260
f 244/380/271 245/358/310 246/381/269
f 247/382/266 248/357/309 249/383/280
f 250/384/274 251/350/304 252/385/288
f 269/386/306 270/387/323 271/329/291
f 272/388/311 273/340/295 274/389/324
f 275/390/308 276/347/301 277/391/281
f 278/392/305 279/393/297 280/346/300
f 213/367/325 205/360/312 207/362/313 211/365/326
f 206/300/273 209/299/272 208/363/314 207/394/313
f 219/370/290 241/395/289 243/280/260 220/279/259
f 264/277/327 239/276/327 240/396/327 263/397/327
f 215/331/328 213/367/316 212/398/316 214/399/328
f 205/360/312 237/334/327 238/400/327 206/361/273
f 268/332/328 215/331/328 214/399/328 267/401/328
f 216/345/299 223/344/298 222/290/329 217/296/317
f 223/344/320 225/275/328 226/402/328 224/403/320
f 220/279/259 218/278/258 217/296/317 221/295/318
f 239/276/327 216/345/299 218/369/258 240/396/327
f 246/404/269 210/364/268 209/299/272 244/298/271
f 254/320/330 228/319/321 227/374/292 253/405/293
f 252/326/288 235/325/287 234/406/275 250/407/274
f 258/408/331 232/409/332 233/284/264 257/314/285
f 221/295/318 236/294/322 235/325/287 219/328/290
f 228/319/321 208/318/314 210/410/268 229/375/267
f 231/306/279 212/305/278 211/323/333 230/322/334
f 232/291/332 222/290/335 224/285/265 233/284/264
f 272/411/311 245/412/310 244/298/271 273/340/295
f 229/287/267 247/286/266 249/413/280 227/414/292
f 278/351/305 251/350/304 250/384/274 279/393/297
f 251/350/304 242/353/307 241/327/289 252/326/288
f 247/286/266 246/289/269 245/358/310 248/357/309
f 260/321/336 254/320/330 253/405/293 259/415/294
f 236/294/322 255/293/337 256/416/276 234/376/275
f 255/293/337 258/292/331 257/417/285 256/416/276
f 230/418/334 260/419/336 259/338/294 231/306/279
f 237/334/327 261/333/327 262/420/327 238/400/327
f 261/333/327 264/277/327 263/397/327 262/420/327
f 225/275/328 265/274/328 266/421/328 226/402/328
f 265/274/328 268/332/328 267/401/328 266/421/328
f 242/422/307 269/423/306 271/329/291 243/280/260
f 270/387/323 274/389/324 273/340/295 271/329/291
f 248/357/309 275/356/308 277/391/281 249/383/280
f 276/347/301 280/346/300 279/393/297 277/391/281
f 280/346/300 270/349/303 269/352/306 278/351/305
f 275/356/308 272/359/311 274/348/302 276/347/301
f 213/367/325 215/331/257 237/334/257 205/360/312
o Cube.002
v 0.350899 0.068817 -0.951039
v 0.350899 0.125467 -1.007689
v 0.350899 0.076407 -0.979364
v 0.350899 0.097143 -1.000099
v -0.350899 0.125467 -1.007689
v -0.350899 0.068817 -0.951039
v -0.350899 0.097143 -1.000099
v -0.350899 0.076407 -0.979364
v 0.350899 0.203121 0.951039
v 0.350899 0.146471 1.007689
v 0.350899 0.195531 0.979364
v 0.350899 0.174796 1.000099
v -0.350899 0.146471 1.007689
v -0.350899 0.203121 0.951039
v -0.350899 0.174796 1.000099
v -0.350899 0.195531 0.979364
v -0.350899 0.068817 0.951039
v -0.350899 0.125467 1.007689
v -0.350899 0.076407 0.979364
v -0.350899 0.097143 1.000099
v 0.350899 0.125467 1.007689
v 0.350899 0.068817 0.951039
v 0.350899 0.097143 1.000099
v 0.350899 0.076407 0.979364
v -0.350899 0.203121 -0.951039
v -0.350899 0.146471 -1.007689
v -0.350899 0.195531 -0.979364
v -0.350899 0.174796 -1.000099
v 0.350899 0.146471 -1.007689
v 0.350899 0.203121 -0.951039
v 0.350899 0.174796 -1.000099
v 0.350899 0.195531 -0.979364
vt 0.708333 0.507027
vt 0.791667 0.507027
vt 0.791667 0.742973
vt 0.708333 0.742973
vt 0.480451 0.333333
vt 0.519549 0.333333
vt 0.519549 0.416667
vt 0.480451 0.416667
vt 0.480451 0.833333
vt 0.519549 0.833333
vt 0.519549 0.916667
vt 0.480451 0.916667
vt 0.291667 0.507027
vt 0.208333 0.507027
vt 0.208333 0.503514
vt 0.291667 0.503514
vt 0.208333 0.500000
vt 0.291667 0.500000
vt 0.375000 0.416667
vt 0.375000 0.333333
vt 0.791667 0.746486
vt 0.708333 0.746486
vt 0.791667 0.750000
vt 0.708333 0.750000
vt 0.625000 0.833333
vt 0.625000 0.916667
vt 0.208333 0.742973
vt 0.291667 0.742973
vt 0.291667 0.746486
vt 0.208333 0.746486
vt 0.291667 0.750000
vt 0.208333 0.750000
vt 0.375000 0.916667
vt 0.375000 0.833333
vt 0.708333 0.503514
vt 0.791667 0.503514
vt 0.708333 0.500000
vt 0.791667 0.500000
vt 0.625000 0.333333
vt 0.625000 0.416667
vn 0.0000 0.9914 -0.1305
vn 0.0000 0.9914 0.1305
vn 0.0000 -0.1305 -0.9914
vn 0.0000 0.1305 -0.9914
vn 0.0000 -0.1305 0.9914
vn 0.0000 0.1305 0.9914
vn 0.0000 -0.9914 -0.1305
vn 0.0000 -0.8660 -0.5000
vn 0.0000 -0.5000 -0.8660
vn 0.0000 0.8660 0.5000
vn 0.0000 0.5000 0.8660
vn 0.0000 -0.9914 0.1305
vn 0.0000 -0.8660 0.5000
vn 0.0000 -0.5000 0.8660
vn 0.0000 0.8660 -0.5000
vn 0.0000 0.5000 -0.8660
usemtl Material.001
s 1
f 310/424/338 305/425/338 294/426/339 289/427/339
f 285/428/340 306/429/341 309/430/341 282/431/340
f 301/432/342 290/433/343 293/434/343 298/435/342
f 281/436/344 286/437/344 288/438/345 283/439/345
f 283/439/345 288/438/345 287/440/346 284/441/346
f 284/442/346 287/443/346 285/428/340 282/431/340
f 289/427/339 294/426/339 296/444/347 291/445/347
f 291/445/347 296/444/347 295/446/348 292/447/348
f 292/448/348 295/449/348 293/434/343 290/433/343
f 297/450/349 302/451/349 304/452/350 299/453/350
f 299/453/350 304/452/350 303/454/351 300/455/351
f 300/456/351 303/457/351 301/432/342 298/435/342
f 305/425/338 310/424/338 312/458/352 307/459/352
f 307/459/352 312/458/352 311/460/353 308/461/353
f 308/462/353 311/463/353 309/430/341 306/429/341
f 286/437/344 281/436/344 302/451/349 297/450/349
o Cube.003
v 0.369463 0.317725 -0.801005
v 0.382803 0.331062 -0.798892
v 0.369463 0.330612 -0.784309
v 0.382803 1.011336 -0.448132
v 0.369463 1.024697 -0.435553
v 0.369463 1.014187 -0.430401
v 0.369463 0.330928 -0.938285
v 0.382803 0.331293 -0.923592
v 0.369463 0.317962 -0.928179
v 0.369463 1.013850 -0.600765
v 0.369463 1.024456 -0.579304
v 0.382803 1.011102 -0.587492
v 0.296384 0.330928 -0.938285
v 0.296384 0.317962 -0.928179
v 0.283044 0.331293 -0.923592
v 0.296384 1.013850 -0.600765
v 0.283044 1.011102 -0.587492
v 0.296384 1.024456 -0.579304
v 0.296384 0.330612 -0.784309
v 0.283044 0.331062 -0.798892
v 0.296384 0.317725 -0.801005
v 0.296384 1.014187 -0.430400
v 0.296384 1.024697 -0.435553
v 0.283044 1.011336 -0.448132
v 0.382803 0.908821 -0.666040
v 0.369463 0.908799 -0.681383
v 0.382803 0.793197 -0.753420
v 0.369463 0.793194 -0.768577
v 0.382803 0.674925 -0.829758
v 0.369463 0.674879 -0.844705
v 0.382803 0.554495 -0.872885
v 0.369463 0.554482 -0.887631
v 0.369463 0.434558 -0.912387
v 0.382803 0.434537 -0.897757
v 0.369463 0.909044 -0.512136
v 0.382803 0.909022 -0.527613
v 0.369463 0.793218 -0.606435
v 0.382803 0.793216 -0.621709
v 0.369463 0.675380 -0.682563
v 0.382803 0.675334 -0.697617
v 0.369463 0.554624 -0.725489
v 0.382803 0.554611 -0.740341
v 0.382803 0.434351 -0.772080
v 0.369463 0.434329 -0.757350
v 0.283044 0.909022 -0.527613
v 0.296384 0.909044 -0.512136
v 0.283044 0.793216 -0.621709
v 0.296384 0.793218 -0.606435
v 0.283044 0.675334 -0.697617
v 0.296384 0.675380 -0.682563
v 0.283044 0.554611 -0.740341
v 0.296384 0.554624 -0.725489
v 0.296384 0.434329 -0.757350
v 0.283044 0.434351 -0.772080
v 0.296384 0.908799 -0.681383
v 0.283044 0.908821 -0.666040
v 0.296384 0.793194 -0.768577
v 0.283044 0.793197 -0.753420
v 0.296384 0.674879 -0.844705
v 0.283044 0.674925 -0.829758
v 0.296384 0.554482 -0.887631
v 0.283044 0.554495 -0.872885
v 0.283044 0.434537 -0.897757
v 0.296384 0.434558 -0.912387
v -0.369463 0.317725 -0.801005
v -0.369463 0.330612 -0.784309
v -0.382803 0.331062 -0.798892
v -0.382803 1.011336 -0.448132
v -0.369463 1.014187 -0.430400
v -0.369463 1.024697 -0.435553
v -0.369463 0.330928 -0.938285
v -0.369463 0.317962 -0.928179
v -0.382803 0.331293 -0.923592
v -0.369463 1.013850 -0.600765
v -0.382803 1.011102 -0.587492
v -0.369463 1.024456 -0.579304
v -0.296384 0.330928 -0.938285
v -0.283044 0.331293 -0.923592
v -0.296384 0.317962 -0.928179
v -0.296384 1.013850 -0.600765
v -0.296384 1.024456 -0.579304
v -0.283044 1.011102 -0.587492
v -0.296384 0.330612 -0.784309
v -0.296384 0.317725 -0.801005
v -0.283044 0.331062 -0.798892
v -0.296384 1.014187 -0.430401
v -0.283044 1.011336 -0.448132
v -0.296384 1.024697 -0.435553
v -0.369463 0.908799 -0.681383
v -0.382803 0.908821 -0.666040
v -0.369463 0.793194 -0.768577
v -0.382803 0.793197 -0.753420
v -0.369463 0.674879 -0.844705
v -0.382803 0.674925 -0.829758
v -0.369463 0.554482 -0.887631
v -0.382803 0.554495 -0.872885
v -0.382803 0.434537 -0.897757
v -0.369463 0.434558 -0.912387
v -0.382803 0.909022 -0.527613
v -0.369463 0.909044 -0.512136
v -0.382803 0.793216 -0.621709
v -0.369463 0.793218 -0.606435
v -0.382803 0.675334 -0.697617
v -0.369463 0.675380 -0.682563
v -0.382803 0.554611 -0.740341
v -0.369463 0.554624 -0.725489
v -0.369463 0.434329 -0.757350
v -0.382803 0.434351 -0.772080
v -0.296384 0.909044 -0.512136
v -0.283044 0.909022 -0.527613
v -0.296384 0.793218 -0.606435
v -0.283044 0.793216 -0.621709
v -0.296384 0.675380 -0.682563
v -0.283044 0.675334 -0.697617
v -0.296384 0.554624 -0.725489
v -0.283044 0.554611 -0.740341
v -0.283044 0.434351 -0.772080
v -0.296384 0.434329 -0.757350
v -0.283044 0.908821 -0.666040
v -0.296384 0.908799 -0.681383
v -0.283044 0.793197 -0.753420
v -0.296384 0.793194 -0.768577
v -0.283044 0.674925 -0.829758
v -0.296384 0.674879 -0.844705
v -0.283044 0.554495 -0.872885
v -0.296384 0.554482 -0.887631
v -0.296384 0.434558 -0.912387
v -0.283044 0.434537 -0.897757
vt 0.406770 0.837392
vt 0.322330 0.516519
vt 0.268665 0.533471
vt 0.368471 0.838658
vt 0.379626 0.391715
vt 0.416667 0.391715
vt 0.416667 0.483285
vt 0.379626 0.483285
vt 0.641716 0.519568
vt 0.733285 0.519568
vt 0.733285 0.730432
vt 0.641715 0.730432
vt 0.583333 0.766715
vt 0.621206 0.766715
vt 0.621206 0.858285
vt 0.583333 0.858285
vt 0.583333 0.522663
vt 0.620188 0.522669
vt 0.620188 0.727199
vt 0.583333 0.727138
vt 0.620036 0.829551
vt 0.618703 0.421822
vt 0.564389 0.439271
vt 0.581428 0.831182
vt 0.541667 0.391715
vt 0.583333 0.391715
vt 0.583333 0.483285
vt 0.541667 0.483285
vt 0.537742 0.831824
vt 0.503895 0.459511
vt 0.443261 0.477830
vt 0.494197 0.834382
vt 0.382579 0.496226
vt 0.450700 0.836835
vt 0.379766 0.523685
vt 0.379764 0.726183
vt 0.416667 0.726247
vt 0.416667 0.523591
vt 0.266715 0.521677
vt 0.358285 0.521677
vt 0.358285 0.728323
vt 0.266715 0.728324
vt 0.416667 0.766715
vt 0.458333 0.766715
vt 0.458333 0.858285
vt 0.416667 0.858285
vt 0.500000 0.766715
vt 0.500000 0.858285
vt 0.541667 0.766715
vt 0.541667 0.858285
vt 0.379613 0.766715
vt 0.379613 0.858284
vt 0.458333 0.391715
vt 0.458333 0.483285
vt 0.500000 0.391715
vt 0.500000 0.483285
vt 0.621187 0.391715
vt 0.621187 0.483285
vt 0.416667 0.523591
vt 0.458333 0.522736
vt 0.458333 0.727101
vt 0.416667 0.726247
vt 0.500000 0.523046
vt 0.500000 0.726790
vt 0.541667 0.523369
vt 0.541667 0.726450
vt 0.406770 0.837392
vt 0.368471 0.838658
vt 0.268665 0.533471
vt 0.322330 0.516519
vt 0.379626 0.391715
vt 0.379626 0.483285
vt 0.416667 0.483285
vt 0.416667 0.391715
vt 0.641716 0.519568
vt 0.641715 0.730432
vt 0.733284 0.730432
vt 0.733285 0.519568
vt 0.583333 0.766715
vt 0.583333 0.858285
vt 0.621206 0.858285
vt 0.621206 0.766716
vt 0.583333 0.522663
vt 0.583333 0.727138
vt 0.620188 0.727199
vt 0.620188 0.522669
vt 0.620036 0.829551
vt 0.581428 0.831182
vt 0.564389 0.439271
vt 0.618703 0.421821
vt 0.541667 0.391715
vt 0.541667 0.483285
vt 0.583333 0.483285
vt 0.583333 0.391715
vt 0.537742 0.831824
vt 0.494197 0.834382
vt 0.443261 0.477830
vt 0.503895 0.459511
vt 0.450700 0.836835
vt 0.382579 0.496226
vt 0.266715 0.521677
vt 0.266715 0.728323
vt 0.358285 0.728323
vt 0.358285 0.521677
vt 0.416667 0.766715
vt 0.416667 0.858285
vt 0.458333 0.858285
vt 0.458333 0.766715
vt 0.500000 0.858285
vt 0.500000 0.766715
vt 0.541667 0.858285
vt 0.541667 0.766715
vt 0.379613 0.766715
vt 0.379613 0.858284
vt 0.458333 0.483285
vt 0.458333 0.391715
vt 0.500000 0.483285
vt 0.500000 0.391715
vt 0.621187 0.483285
vt 0.621187 0.391715
vt 0.458333 0.727101
vt 0.458333 0.522736
vt 0.500000 0.726790
vt 0.500000 0.523046
vt 0.541667 0.726450
vt 0.541667 0.523369
vt 0.375000 0.731718
vt 0.358285 0.750000
vt 0.625000 0.730432
vt 0.621206 0.750000
vt 0.358285 0.505216
vt 0.375000 0.529089
vt 0.625000 0.483285
vt 0.622873 0.500000
vt 0.266715 0.505216
vt 0.250000 0.529089
vt 0.622873 0.375000
vt 0.625000 0.391715
vt 0.266715 0.750000
vt 0.250000 0.731718
vt 0.621206 0.875000
vt 0.625000 0.835864
vt 0.358285 0.750000
vt 0.375000 0.731718
vt 0.621206 0.750000
vt 0.625000 0.730432
vt 0.358285 0.505216
vt 0.375000 0.529089
vt 0.622873 0.500000
vt 0.625000 0.483285
vt 0.266715 0.505216
vt 0.250000 0.529089
vt 0.625000 0.391715
vt 0.622873 0.375000
vt 0.266715 0.750000
vt 0.250000 0.731718
vt 0.621206 0.875000
vt 0.625000 0.835864
vt 0.379766 0.523685
vt 0.379764 0.726183
vt 0.266715 0.500000
vt 0.358285 0.500000
vt 0.625000 0.766715
vt 0.625000 0.858285
vt 0.625000 0.414136
vt 0.312500 0.479167
vt 0.256939 0.497687
vt 0.586008 0.375000
vt 0.544293 0.375000
vt 0.583333 0.375000
vt 0.502407 0.375000
vt 0.541667 0.375000
vt 0.459952 0.375000
vt 0.500000 0.375000
vt 0.375000 0.458333
vt 0.358285 0.500000
vt 0.266715 0.500000
vt 0.625000 0.858285
vt 0.625000 0.766715
vt 0.625000 0.414136
vt 0.256939 0.497687
vt 0.312500 0.479167
vt 0.586008 0.375000
vt 0.583333 0.375000
vt 0.544293 0.375000
vt 0.541667 0.375000
vt 0.502407 0.375000
vt 0.500000 0.375000
vt 0.459952 0.375000
vt 0.375000 0.458333
vn -1.0000 0.0000 0.0000
vn 0.0000 0.2424 -0.9702
vn 0.0000 0.2224 -0.9750
vn 0.3404 0.9213 -0.1878
vn -0.3404 0.9213 -0.1878
vn 0.0000 1.0000 -0.0017
vn 0.0000 -0.6226 0.7825
vn 0.0000 -0.6137 0.7895
vn 1.0000 0.0000 0.0000
vn 0.0000 0.5720 -0.8202
vn 0.0000 0.6055 -0.7959
vn 0.0000 -1.0000 -0.0019
vn 0.0000 -0.2538 0.9673
vn 0.0000 -0.2957 0.9553
vn 0.0000 -0.4418 0.8971
vn 0.0000 -0.5879 0.8089
vn 0.0000 -0.2516 0.9678
vn 0.0000 0.2696 -0.9630
vn 0.0000 0.4414 -0.8973
vn -0.3240 0.7161 -0.6182
vn 0.3240 0.7161 -0.6182
vn 0.6776 -0.7089 0.1959
vn 0.7328 -0.5457 0.4064
vn 0.6957 -0.3543 0.6249
vn 0.7898 0.2700 0.5508
vn 0.6630 -0.4602 -0.5905
vn 0.6617 0.6662 -0.3439
vn -0.6630 -0.4602 -0.5905
vn -0.6617 0.6662 -0.3439
vn -0.6957 -0.3543 0.6249
vn -0.7328 -0.5457 0.4064
vn -0.6776 -0.7089 0.1959
vn -0.7898 0.2700 0.5507
vn 0.7311 0.1505 -0.6654
vn 0.7284 0.1662 -0.6647
vn 0.7306 0.1535 -0.6653
vn 0.7071 -0.7071 -0.0013
vn 0.7071 0.7071 -0.0012
vn 0.7307 -0.1733 0.6604
vn 0.7305 -0.1730 0.6607
vn 0.0000 -0.7916 0.6110
vn 0.0000 -0.6147 -0.7887
vn 0.0000 0.4402 0.8979
vn -0.7071 0.7071 -0.0012
vn -0.7071 -0.7071 -0.0013
vn -0.7305 -0.1730 0.6607
vn -0.7307 -0.1733 0.6604
vn -0.7306 0.1535 -0.6653
vn -0.7284 0.1662 -0.6647
vn -0.7311 0.1505 -0.6654
vn 0.6741 0.4482 -0.5872
vn 0.6739 0.4468 -0.5884
vn 0.6791 0.4266 -0.5974
vn 0.6830 0.4119 -0.6031
vn 0.7043 0.3304 -0.6283
vn 0.7119 0.2956 -0.6370
vn 0.7284 0.1912 -0.6579
vn 0.7297 0.1790 -0.6599
vn 0.6758 -0.4523 0.5820
vn 0.6726 -0.4586 0.5809
vn 0.6696 -0.4643 0.5797
vn 0.6755 -0.4429 0.5895
vn 0.6825 -0.4200 0.5981
vn 0.7070 -0.3287 0.6261
vn 0.7147 -0.2937 0.6348
vn 0.7285 -0.2061 0.6533
vn 0.7293 -0.1982 0.6549
vn -0.6758 -0.4523 0.5820
vn -0.6696 -0.4643 0.5797
vn -0.6726 -0.4586 0.5809
vn -0.6825 -0.4200 0.5981
vn -0.6755 -0.4429 0.5895
vn -0.7147 -0.2937 0.6348
vn -0.7070 -0.3287 0.6261
vn -0.7293 -0.1982 0.6549
vn -0.7285 -0.2061 0.6533
vn -0.6739 0.4468 -0.5884
vn -0.6741 0.4482 -0.5872
vn -0.6830 0.4119 -0.6031
vn -0.6791 0.4266 -0.5974
vn -0.7119 0.2956 -0.6370
vn -0.7043 0.3304 -0.6283
vn -0.7297 0.1790 -0.6599
vn -0.7284 0.1912 -0.6579
usemtl metallic_white
s 1
f 366/464/354 375/465/354 327/466/354 332/467/354
f 325/468/355 376/469/356 345/470/356 319/471/355
f 323/472/357 330/473/358 335/474/359 317/475/359
f 347/476/360 318/477/361 334/478/361 358/479/360
f 337/480/362 324/481/362 316/482/362 348/483/362
f 336/484/354 329/485/354 368/486/354 357/487/354
f 369/488/363 367/489/364 338/490/364 340/491/363
f 359/492/354 370/493/354 372/494/354 361/495/354
f 361/495/354 372/494/354 374/496/354 363/497/354
f 363/497/354 374/496/354 375/465/354 366/464/354
f 385/498/354 379/499/354 420/500/354 409/501/354
f 326/502/365 321/503/365 313/504/365 333/505/365
f 357/487/354 368/486/354 370/493/354 359/492/354
f 356/506/366 353/507/367 364/508/367 365/509/366
f 353/507/367 351/510/368 362/511/368 364/508/367
f 351/510/368 349/512/369 360/513/369 362/511/368
f 315/514/370 356/506/366 365/509/366 331/515/370
f 349/512/369 347/476/360 358/479/360 360/513/369
f 376/469/356 373/516/371 344/517/371 345/470/356
f 373/516/371 371/518/372 342/519/372 344/517/371
f 371/518/372 369/488/363 340/491/363 342/519/372
f 367/489/364 328/520/373 322/521/374 338/490/364
f 346/522/362 343/523/362 354/524/362 355/525/362
f 343/523/362 341/526/362 352/527/362 354/524/362
f 341/526/362 339/528/362 350/529/362 352/527/362
f 339/528/362 337/480/362 348/483/362 350/529/362
f 429/530/362 397/531/362 390/532/362 440/533/362
f 389/534/355 383/535/355 410/536/356 439/537/356
f 388/538/358 382/539/359 400/540/359 393/541/357
f 412/542/360 421/543/360 398/544/361 381/545/361
f 402/546/354 411/547/354 380/548/354 387/549/354
f 399/550/362 422/551/362 431/552/362 394/553/362
f 434/554/363 403/555/363 401/556/364 432/557/364
f 424/558/362 426/559/362 435/560/362 433/561/362
f 426/559/362 428/562/362 437/563/362 435/560/362
f 428/562/362 429/530/362 440/533/362 437/563/362
f 391/564/365 396/565/365 377/566/365 384/567/365
f 422/551/362 424/558/362 433/561/362 431/552/362
f 419/568/366 430/569/366 427/570/367 418/571/367
f 418/571/367 427/570/367 425/572/368 416/573/368
f 416/573/368 425/572/368 423/574/369 414/575/369
f 378/576/370 395/577/370 430/569/366 419/568/366
f 414/575/369 423/574/369 421/543/360 412/542/360
f 439/537/356 410/536/356 407/578/371 438/579/371
f 438/579/371 407/578/371 405/580/372 436/581/372
f 436/581/372 405/580/372 403/555/363 434/554/363
f 432/557/364 401/556/364 386/582/373 392/583/374
f 409/501/354 420/500/354 417/584/354 408/585/354
f 408/585/354 417/584/354 415/586/354 406/587/354
f 406/587/354 415/586/354 413/588/354 404/589/354
f 404/589/354 413/588/354 411/547/354 402/546/354
f 313/504/375 314/590/376 315/591/377
f 316/482/378 317/592/378 318/593/378
f 319/594/379 320/595/379 321/503/379
f 322/521/374 323/596/357 324/597/380
f 325/598/381 326/502/381 327/599/381
f 328/520/373 329/600/382 330/601/358
f 331/602/383 332/603/384 333/505/385
f 334/604/386 335/605/386 336/484/386
f 377/566/385 378/606/383 379/607/384
f 380/548/386 381/608/386 382/609/386
f 383/610/381 384/567/381 385/611/381
f 386/582/373 387/612/382 388/613/358
f 389/614/379 390/615/379 391/564/379
f 392/583/374 393/616/357 394/617/380
f 395/618/377 396/565/375 397/619/376
f 398/620/378 399/550/378 400/621/378
f 330/601/358 323/596/357 322/521/374 328/520/373
f 346/522/387 320/622/388 319/471/388 345/470/389
f 313/504/375 321/503/390 320/622/390 314/623/376
f 323/472/357 317/475/391 316/482/391 324/481/380
f 356/506/392 315/514/377 314/623/376 355/525/393
f 333/505/394 313/504/394 315/591/394 331/602/394
f 321/503/395 326/502/395 325/624/395 319/625/395
f 317/626/396 335/627/396 334/478/396 318/477/396
f 329/485/382 336/484/397 335/605/397 330/628/358
f 326/502/398 333/505/385 332/603/384 327/599/398
f 366/464/399 332/467/384 331/515/383 365/509/400
f 376/629/401 325/630/402 327/466/402 375/465/403
f 324/481/380 337/480/404 338/490/405 322/521/374
f 337/480/404 339/528/406 340/491/407 338/490/405
f 339/528/406 341/526/408 342/519/409 340/491/407
f 341/526/408 343/523/410 344/517/411 342/519/409
f 343/523/410 346/522/387 345/470/389 344/517/411
f 318/477/412 347/476/413 348/483/414 316/482/412
f 347/476/413 349/512/415 350/529/416 348/483/414
f 349/512/415 351/510/417 352/527/418 350/529/416
f 351/510/417 353/507/419 354/524/420 352/527/418
f 353/507/419 356/506/392 355/525/393 354/524/420
f 336/484/421 357/487/422 358/479/423 334/478/421
f 357/487/422 359/492/424 360/513/425 358/479/423
f 359/492/424 361/495/426 362/511/427 360/513/425
f 361/495/426 363/497/428 364/508/429 362/511/427
f 363/497/428 366/464/399 365/509/400 364/508/429
f 328/520/373 367/489/430 368/631/431 329/600/382
f 367/489/430 369/488/432 370/632/433 368/633/431
f 369/488/432 371/518/434 372/634/435 370/635/433
f 371/518/434 373/516/436 374/636/437 372/637/435
f 373/638/436 376/629/401 375/465/403 374/496/437
f 392/583/374 386/582/373 388/613/358 393/616/357
f 410/536/401 383/535/402 385/498/402 409/501/403
f 379/499/384 385/498/398 384/567/398 377/566/385
f 387/549/382 380/548/397 382/539/397 388/538/358
f 420/500/399 379/499/384 378/576/383 419/568/400
f 395/618/394 378/606/394 377/566/394 396/565/394
f 383/639/395 389/640/395 391/564/395 384/567/395
f 381/545/396 398/544/396 400/641/396 382/642/396
f 393/643/357 400/621/391 399/550/391 394/553/380
f 390/615/390 397/619/376 396/565/375 391/564/390
f 430/569/392 395/577/377 397/531/376 429/530/393
f 440/533/387 390/532/388 389/644/388 439/645/389
f 386/582/373 401/556/430 402/546/431 387/549/382
f 401/556/430 403/555/432 404/589/433 402/546/431
f 403/555/432 405/580/434 406/587/435 404/589/433
f 405/580/434 407/578/436 408/585/437 406/587/435
f 407/578/436 410/536/401 409/501/403 408/585/437
f 380/548/421 411/547/422 412/542/423 381/545/421
f 411/547/422 413/588/424 414/575/425 412/542/423
f 413/588/424 415/586/426 416/573/427 414/575/425
f 415/586/426 417/584/428 418/571/429 416/573/427
f 417/584/428 420/500/399 419/568/400 418/571/429
f 398/544/412 421/543/413 422/551/414 399/550/412
f 421/543/413 423/574/415 424/558/416 422/551/414
f 423/574/415 425/572/417 426/559/418 424/558/416
f 425/572/417 427/570/419 428/562/420 426/559/418
f 427/570/419 430/569/392 429/530/393 428/562/420
f 394/617/380 431/646/404 432/557/405 392/583/374
f 431/647/404 433/648/406 434/554/407 432/557/405
f 433/649/406 435/650/408 436/581/409 434/554/407
f 435/651/408 437/652/410 438/579/411 436/581/409
f 437/563/410 440/533/387 439/645/389 438/653/411
f 320/622/362 346/522/362 355/525/362 314/623/362
o Cube.004
v -0.416231 1.037347 -0.245245
v -0.411516 1.022543 -0.264551
v -0.408531 1.101645 -0.259470
v -0.409388 1.076668 -0.242993
v -0.403010 1.141008 -0.361029
v -0.333675 1.014390 -0.265489
v -0.243814 1.063202 -0.244290
v -0.277197 1.107623 -0.263248
v -0.435194 1.079816 -0.354451
v -0.436560 1.092467 -0.475972
v -0.410859 1.006367 -0.490023
v -0.390459 0.997962 -0.469676
v -0.387913 1.013339 -0.353889
v -0.205090 0.999855 -0.460875
v -0.410522 1.174393 -0.457257
v -0.385874 1.187731 -0.462232
v -0.211164 1.184345 -0.454659
v -0.261372 1.023931 -0.255582
v -0.110322 1.108035 -0.299690
v -0.113596 1.079247 -0.277801
v 0.004399 1.013036 -0.400436
v -0.246076 1.145489 -0.370877
v -0.152712 1.049214 -0.264498
v -0.033873 1.022610 -0.304810
v -0.004728 1.059129 -0.289376
v 0.001881 1.099018 -0.305003
v 0.013763 1.013920 -0.333286
v -0.010156 1.002126 -0.465581
v 0.004415 1.139739 -0.394967
v 0.034909 1.187484 -0.476265
v -0.389651 0.953109 -0.605336
v -0.436895 1.073920 -0.645008
v -0.412675 0.967825 -0.633226
v -0.413356 1.172888 -0.593061
v -0.387534 1.190547 -0.567391
v -0.392221 0.963320 -0.647891
v -0.408513 1.138119 -0.632400
v -0.402593 1.072886 -0.661571
v -0.382665 1.175728 -0.619632
v -0.271842 1.170317 -0.625755
v -0.242953 1.190629 -0.590317
v -0.209898 0.951628 -0.633118
v -0.266331 0.972322 -0.653364
v -0.173742 0.964559 -0.661427
v -0.272611 1.075528 -0.661099
v -0.176724 1.076009 -0.679466
v -0.170355 0.988365 -0.674388
v -0.150841 1.186504 -0.646392
v -0.176205 1.169122 -0.667663
v 0.012803 1.190398 -0.594913
v 0.178257 0.962043 -0.658732
v 0.001308 1.074345 -0.679867
v 0.174744 0.987515 -0.673577
v -0.111803 1.170678 -0.668578
v -0.000478 1.169825 -0.643937
v 0.115372 1.020969 -0.290824
v 0.120205 1.039468 -0.276079
v 0.113712 1.079382 -0.277602
v 0.053129 1.108424 -0.311971
v 0.189987 1.184037 -0.456516
v 0.246517 1.053556 -0.243246
v 0.276669 1.107891 -0.263983
v 0.285446 1.015091 -0.266396
v 0.412671 1.034688 -0.245680
v 0.256482 1.146026 -0.371083
v 0.201707 0.999600 -0.462181
v 0.407335 1.018464 -0.262875
v 0.414808 1.076871 -0.243387
v 0.406449 1.102581 -0.262390
v 0.376924 1.013163 -0.353948
v 0.388892 0.999692 -0.461766
v 0.430740 1.054077 -0.354094
v 0.432171 1.100800 -0.374121
v 0.414178 1.016484 -0.461303
v 0.437054 1.092254 -0.481111
v 0.394365 1.143060 -0.363383
v 0.387818 1.185933 -0.456813
v 0.411990 1.173290 -0.461144
v 0.243673 0.953907 -0.636636
v 0.176242 1.078077 -0.679719
v 0.136171 1.187841 -0.642132
v 0.120555 1.172293 -0.668950
v 0.172724 1.170430 -0.668603
v 0.386226 1.190421 -0.589569
v 0.267394 1.185219 -0.607081
v 0.272331 0.985231 -0.655774
v 0.268413 1.075644 -0.661588
v 0.264108 1.162546 -0.630701
v 0.386706 0.953424 -0.604842
v 0.411600 0.965208 -0.623228
v 0.436263 1.075484 -0.644712
v 0.413266 1.171790 -0.600294
v 0.403317 1.072789 -0.661503
v 0.400063 0.964162 -0.645939
v 0.402100 1.149883 -0.630315
vn -0.6256 -0.3473 0.6986
vn -0.5457 0.2594 0.7968
vn -0.5446 0.6448 0.5363
vn 0.1284 0.0804 0.9885
vn 0.0528 0.7410 0.6694
vn -0.9936 0.0569 0.0976
vn -0.5545 -0.7897 0.2624
vn -0.7899 -0.5980 0.1356
vn -0.9995 0.0242 0.0190
vn 0.0141 -0.9752 0.2208
vn -0.1235 -0.9886 0.0862
vn -0.1815 -0.9654 0.1872
vn -0.4953 0.8038 0.3295
vn -0.7306 0.6672 0.1450
vn -0.2121 0.9568 0.1990
vn 0.1751 0.4213 0.8899
vn 0.1135 0.7825 0.6122
vn -0.0010 -0.9956 0.0938
vn 0.2064 -0.1905 0.9597
vn 0.0740 -0.7525 0.6544
vn -0.0303 0.0219 0.9993
vn 0.0019 -0.9696 0.2447
vn 0.0313 0.9210 0.3884
vn 0.0033 0.9020 0.4317
vn 0.0226 0.9376 0.3469
vn -0.0056 0.9654 0.2605
vn -0.7428 -0.5721 -0.3477
vn -0.7339 0.6356 -0.2395
vn -0.8513 0.0523 -0.5221
vn -0.3166 -0.9447 0.0852
vn -0.2703 0.9582 -0.0935
vn -0.2531 -0.6306 -0.7336
vn -0.4813 0.4602 -0.7460
vn -0.2457 0.1087 -0.9632
vn -0.2115 0.7310 -0.6488
vn -0.0985 0.1459 -0.9844
vn -0.0508 0.9837 -0.1723
vn -0.0595 -0.4282 -0.9017
vn -0.1153 0.6580 -0.7441
vn -0.1266 0.0568 -0.9903
vn 0.2449 -0.9654 0.0893
vn -0.0086 0.9889 -0.1485
vn 0.0531 -0.7464 -0.6634
vn -0.0384 -0.9623 -0.2694
vn -0.0469 -0.7163 -0.6962
vn -0.0000 0.0909 -0.9959
vn -0.0766 -0.2635 -0.9616
vn 0.0670 0.5678 -0.8204
vn -0.2013 0.5092 -0.8368
vn -0.0343 0.9311 -0.3632
vn 0.0094 0.7144 -0.6997
vn -0.0944 -0.8043 0.5866
vn -0.1572 -0.3306 0.9306
vn 0.0092 0.3790 0.9253
vn -0.1671 0.3342 0.9276
vn -0.0092 -0.9920 0.1259
vn -0.0278 0.9369 0.3484
vn -0.0313 0.9224 0.3850
vn -0.0391 -0.8743 0.4838
vn -0.0447 0.8373 0.5449
vn -0.0579 0.7258 0.6855
vn -0.0119 -0.9744 0.2244
vn -0.0605 -0.9940 0.0907
vn 0.5848 -0.3883 0.7122
vn 0.4728 -0.8199 0.3229
vn 0.6093 0.2497 0.7525
vn 0.4578 0.7291 0.5088
vn 0.9707 -0.2306 0.0683
vn 0.9644 0.2362 0.1190
vn 0.8119 -0.5790 0.0750
vn 0.2772 -0.9424 0.1873
vn 0.9994 0.0318 0.0141
vn 0.2367 0.9467 0.2187
vn 0.1513 0.9203 0.3607
vn 0.7519 0.6490 0.1156
vn 0.1274 0.0547 -0.9903
vn -0.0552 0.5731 -0.8176
vn 0.1824 0.5401 -0.8216
vn 0.2449 0.9237 -0.2946
vn 0.0850 0.8703 -0.4851
vn 0.0826 -0.2828 -0.9556
vn 0.0721 -0.3105 -0.9478
vn 0.1035 0.1453 -0.9840
vn 0.0090 0.9601 -0.2793
vn 0.2022 0.5154 -0.8327
vn 0.7676 -0.6321 -0.1059
vn 0.7058 0.6320 -0.3201
vn 0.8461 0.0665 -0.5289
vn 0.4047 -0.6219 -0.6704
vn 0.2343 0.1129 -0.9656
vn 0.3406 0.5307 -0.7761
vn -0.0220 -0.9167 0.3991
vn 0.0836 -0.6713 0.7365
vn -0.1317 -0.1029 0.9859
vn 0.0624 -0.9101 -0.4097
usemtl plastic_black
s 1
f 441//438 444//439 443//440
f 444//439 441//438 447//441
f 443//440 444//439 448//442
f 449//443 441//438 443//440
f 442//444 441//438 449//443
f 451//445 449//443 450//446
f 454//447 453//448 452//449
f 449//443 445//450 455//451
f 453//448 442//444 451//445 452//449
f 456//452 455//451 445//450
f 448//442 447//441 460//453
f 459//454 448//442 460//453
f 461//455 453//448 454//447
f 463//456 464//457 465//458
f 459//454 460//453 465//458
f 468//459 461//455 454//447
f 448//442 459//454 462//460
f 462//460 459//454 469//461
f 457//462 469//461 470//463
f 473//464 451//445 450//446
f 474//465 472//466 450//446
f 472//466 473//464 450//446
f 471//467 452//449 451//445
f 454//447 452//449 471//467
f 474//465 450//446 455//451
f 474//465 455//451 475//468
f 476//469 471//467 473//464
f 473//464 471//467 451//445
f 477//470 478//471 472//466
f 477//470 472//466 474//465
f 479//472 485//473 478//471
f 481//474 475//468 456//452
f 485//473 483//475 478//471
f 480//476 486//477 485//473
f 529//478 468//459 471//467
f 468//459 454//447 471//467
f 456//452 457//462 470//463
f 481//474 470//463 490//479
f 491//480 482//481 484//482
f 492//483 487//484 486//477
f 494//485 486//477 489//486
f 488//487 490//479 495//488
f 492//483 494//485 495//488
f 464//457 496//489 497//490
f 465//458 464//457 497//490
f 466//491 465//458 498//492
f 498//492 465//458 497//490
f 467//493 496//489 464//457
f 500//494 469//461 505//495
f 503//496 496//489 467//493
f 499//497 498//492 502//498
f 506//499 510//500 461//455
f 504//501 503//496 507//502
f 502//498 508//503 509//504
f 512//505 504//501 507//502
f 512//505 508//503 504//501
f 513//506 508//503 512//505
f 509//504 508//503 513//506
f 514//507 507//502 511//508
f 514//507 512//505 507//502
f 515//509 512//505 514//507
f 515//509 513//506 512//505
f 517//510 505//495 516//511
f 516//511 502//498 509//504
f 513//506 518//512 509//504
f 520//513 487//484 492//483
f 522//514 492//483 495//488
f 523//515 520//513 522//514
f 490//479 524//516 525//517
f 493//518 526//519 491//480
f 527//520 526//519 493//518
f 522//514 521//521 523//515
f 528//522 520//513 523//515
f 514//507 511//508 530//523
f 529//478 530//523 511//508
f 530//523 515//509 514//507
f 470//463 517//510 524//516
f 518//512 513//506 532//524
f 531//525 532//524 515//509
f 530//523 529//478 534//526
f 533//527 526//519 527//520
f 531//525 530//523 534//526
f 533//527 531//525 534//526
f 535//528 527//520 528//522
f 524//516 535//528 528//522
f 441//438 442//444 446//529
f 447//441 448//442 444//439
f 449//443 451//445 442//444
f 446//529 453//448 461//455 467//493
f 442//444 453//448 446//529
f 445//450 449//443 443//440
f 455//451 450//446 449//443
f 445//450 443//440 448//442
f 456//452 445//450 457//462
f 457//462 445//450 462//460
f 441//438 446//529 458//530
f 447//441 441//438 458//530
f 447//441 458//530 463//456
f 460//453 447//441 463//456
f 458//530 464//457 463//456
f 462//460 445//450 448//442
f 446//529 464//457 458//530
f 460//453 463//456 465//458
f 466//491 459//454 465//458
f 467//493 464//457 446//529
f 476//469 473//464 472//466 478//471
f 499//497 459//454 466//491
f 457//462 462//460 469//461
f 469//461 459//454 499//497
f 475//468 455//451 456//452
f 479//472 474//465 475//468
f 481//474 479//472 475//468
f 496//489 503//496 501//531 497//490
f 478//471 483//475 476//469
f 479//472 477//470 474//465
f 477//470 479//472 478//471
f 480//476 479//472 481//474
f 476//469 482//481 471//467
f 483//475 482//481 476//469
f 483//475 484//482 482//481
f 485//473 487//484 483//475
f 485//473 486//477 487//484
f 487//484 484//482 483//475
f 485//473 479//472 480//476
f 488//487 480//476 481//474
f 489//486 480//476 488//487
f 480//476 489//486 486//477
f 481//474 456//452 470//463
f 487//484 493//518 484//482
f 494//485 489//486 488//487
f 488//487 481//474 490//479
f 494//485 492//483 486//477
f 495//488 494//485 488//487
f 499//497 466//491 498//492
f 461//455 510//500 467//493
f 505//495 469//461 499//497
f 498//492 497//490 501//531
f 502//498 498//492 501//531
f 529//478 471//467 482//481 519//532
f 502//498 501//531 508//503
f 461//455 468//459 506//499
f 510//500 503//496 467//493
f 510//500 507//502 503//496
f 505//495 499//497 502//498
f 500//494 470//463 469//461
f 504//501 501//531 503//496
f 508//503 501//531 504//501
f 506//499 511//508 510//500
f 511//508 507//502 510//500
f 517//510 500//494 505//495
f 516//511 505//495 502//498
f 518//512 516//511 509//504
f 518//512 517//510 516//511
f 506//499 468//459 529//478 511//508
f 491//480 519//532 482//481
f 493//518 491//480 484//482
f 522//514 520//513 492//483
f 520//513 493//518 487//484
f 521//521 495//488 490//479
f 522//514 495//488 521//521
f 490//479 470//463 524//516
f 470//463 500//494 517//510
f 520//513 527//520 493//518
f 527//520 520//513 528//522
f 526//519 519//532 491//480
f 525//517 523//515 521//521
f 521//521 490//479 525//517
f 525//517 528//522 523//515
f 518//512 524//516 517//510
f 532//524 513//506 515//509
f 532//524 524//516 518//512
f 519//532 534//526 529//478
f 526//519 534//526 519//532
f 533//527 534//526 526//519
f 530//523 531//525 515//509
f 535//528 531//525 533//527
f 525//517 524//516 528//522
f 535//528 533//527 527//520
f 524//516 532//524 535//528
f 535//528 532//524 531//525
o Cube.005
v -0.244864 1.266349 -0.526266
v -0.250453 1.260818 -0.521189
v -0.239275 1.263106 -0.524744
v -0.244864 1.544034 -0.656582
v -0.239275 1.547277 -0.658104
v -0.250453 1.551475 -0.657592
v -0.252405 1.241975 -0.566825
v -0.246816 1.238732 -0.565303
v -0.257994 1.236444 -0.561747
v -0.252405 1.528413 -0.701248
v -0.257994 1.535853 -0.702258
v -0.246816 1.531656 -0.702770
v 0.244864 1.266349 -0.526266
v 0.239275 1.263106 -0.524744
v 0.250453 1.260818 -0.521189
v 0.244864 1.544034 -0.656582
v 0.250453 1.551475 -0.657592
v 0.239275 1.547277 -0.658104
v 0.246816 1.238732 -0.565303
v 0.252405 1.241975 -0.566825
v 0.257994 1.236444 -0.561747
v 0.246816 1.531656 -0.702770
v 0.257994 1.535853 -0.702258
v 0.252405 1.528413 -0.701248
v -0.273858 1.549256 -0.706066
v -0.273858 1.545058 -0.706578
v -0.279447 1.546013 -0.704544
v -0.273858 1.224950 -0.553872
v -0.279447 1.228193 -0.555394
v -0.273858 1.227239 -0.557427
v 0.273858 1.227239 -0.557427
v 0.279447 1.228193 -0.555394
v 0.273858 1.224950 -0.553872
v 0.273858 1.549256 -0.706066
v 0.279447 1.546013 -0.704544
v 0.273858 1.545058 -0.706578
v -0.252405 1.513478 -0.733072
v -0.246816 1.516721 -0.734594
v -0.246816 1.512523 -0.735106
v -0.252405 1.227040 -0.598650
v -0.246816 1.226086 -0.600684
v -0.246816 1.223797 -0.597128
v 0.246816 1.223797 -0.597128
v 0.246816 1.226086 -0.600684
v 0.252405 1.227040 -0.598650
v 0.246816 1.516721 -0.734594
v 0.252405 1.513478 -0.733072
v 0.246816 1.512523 -0.735106
v -0.273858 1.243039 -0.515327
v -0.273858 1.247236 -0.514815
v -0.279447 1.246282 -0.516849
v -0.273858 1.565056 -0.663965
v -0.273858 1.567345 -0.667521
v -0.279447 1.564102 -0.665999
v 0.273858 1.567345 -0.667521
v 0.273858 1.565056 -0.663965
v 0.279447 1.564102 -0.665999
v 0.273858 1.243039 -0.515327
v 0.279447 1.246282 -0.516849
v 0.273858 1.247236 -0.514815
v -0.244864 1.264003 -0.531266
v -0.239275 1.260760 -0.529744
v -0.239275 1.263049 -0.533300
v -0.244864 1.541688 -0.661581
v -0.239275 1.540733 -0.663615
v -0.239275 1.544931 -0.663103
v 0.244864 1.541688 -0.661581
v 0.239275 1.544931 -0.663103
v 0.239275 1.540733 -0.663615
v 0.244864 1.264003 -0.531266
v 0.239275 1.263049 -0.533300
v 0.239275 1.260760 -0.529744
vt 0.127500 0.511932
vt 0.372500 0.511932
vt 0.372500 0.738068
vt 0.127500 0.738068
vt 0.392970 0.765470
vt 0.607030 0.765470
vt 0.607030 0.765470
vt 0.392970 0.765470
vt 0.389596 0.264596
vt 0.610404 0.264596
vt 0.610404 0.485404
vt 0.389596 0.485404
vt 0.389596 0.262096
vt 0.610404 0.262096
vt 0.610404 0.262096
vt 0.389596 0.262096
vt 0.377500 0.511932
vt 0.622500 0.511932
vt 0.622500 0.738068
vt 0.377500 0.738068
vt 0.377500 0.011932
vt 0.622500 0.011932
vt 0.622500 0.238068
vt 0.377500 0.238068
vt 0.387096 0.485404
vt 0.387096 0.264596
vt 0.387096 0.264596
vt 0.387096 0.485404
vt 0.615404 0.259596
vt 0.384596 0.259596
vt 0.377500 0.252500
vt 0.622500 0.252500
vt 0.612904 0.264596
vt 0.612904 0.485404
vt 0.612904 0.485404
vt 0.612904 0.264596
vt 0.627500 0.511932
vt 0.872500 0.511932
vt 0.872500 0.738068
vt 0.627500 0.738068
vt 0.384596 0.490404
vt 0.377500 0.497500
vt 0.615404 0.490404
vt 0.622500 0.497500
vt 0.390470 0.982030
vt 0.390470 0.767970
vt 0.390470 0.767970
vt 0.390470 0.982031
vt 0.610404 0.487904
vt 0.389596 0.487904
vt 0.389596 0.487904
vt 0.610404 0.487904
vt 0.612030 0.987030
vt 0.612030 0.762970
vt 0.622500 0.752500
vt 0.622500 0.997500
vt 0.609530 0.767970
vt 0.609530 0.982030
vt 0.609530 0.982031
vt 0.609530 0.767970
vt 0.387970 0.762970
vt 0.377500 0.752500
vt 0.387970 0.987030
vt 0.377500 0.997500
vt 0.392970 0.984531
vt 0.607030 0.984531
vt 0.625000 0.238068
vt 0.622500 0.250000
vt 0.125000 0.511932
vt 0.127500 0.500000
vt 0.372500 0.500000
vt 0.375000 0.511932
vt 0.625000 0.511932
vt 0.622500 0.500000
vt 0.127500 0.750000
vt 0.125000 0.738068
vt 0.622500 0.000000
vt 0.625000 0.011932
vt 0.625000 0.738068
vt 0.622500 0.750000
vt 0.375000 0.738068
vt 0.372500 0.750000
vt 0.390470 0.984530
vt 0.390470 0.982030
vt 0.607030 0.984531
vt 0.607030 0.984530
vt 0.609530 0.984530
vt 0.609530 0.765470
vt 0.607030 0.765470
vt 0.390470 0.765470
vt 0.390470 0.767970
vt 0.377500 0.000000
vt 0.625000 0.252500
vt 0.625000 0.497500
vt 0.625000 0.752500
vt 0.625000 0.997500
vt 0.392970 0.984530
vt 0.392970 0.984531
vt 0.392970 0.765470
vt 0.609530 0.982030
vt 0.609530 0.767970
vt 0.974364 0.042874
vt 0.974364 0.970567
vt 0.018283 0.970567
vt 0.018283 0.042874
vn -0.2812 -0.8688 0.4077
vn 0.2812 -0.8688 0.4077
vn -1.0000 0.0000 0.0000
vn -0.1785 -0.6422 -0.7455
vn -0.1785 -0.1631 -0.9703
vn 0.1785 -0.1631 -0.9703
vn 0.1785 -0.6422 -0.7455
vn 1.0000 0.0000 0.0000
vn -0.0539 -0.3787 -0.9240
vn -0.0539 -0.4687 -0.8817
vn -0.2812 0.8688 -0.4077
vn 0.2812 0.8688 -0.4077
vn 0.0539 -0.4687 -0.8817
vn 0.0539 -0.3787 -0.9240
vn 0.2812 0.8687 -0.4077
vn -0.2812 0.8687 -0.4077
vn 0.0539 0.3787 0.9240
vn -0.0539 0.3787 0.9240
vn 0.1785 0.6422 0.7455
vn -0.1785 0.6422 0.7455
vn -0.2812 -0.8687 0.4077
vn 0.2812 -0.8687 0.4077
vn -0.0539 0.4687 0.8817
vn 0.1785 0.1631 0.9703
vn 0.0539 0.4687 0.8817
vn -0.1785 0.1631 0.9703
vn 0.2781 0.4818 0.8310
vn 0.0321 0.7915 0.6103
vn 0.2781 0.3313 0.9016
vn 0.0321 -0.0364 0.9988
vn -0.2781 -0.4818 -0.8310
vn -0.0321 -0.7915 -0.6103
vn -0.2781 -0.3313 -0.9016
vn -0.0321 0.0364 -0.9988
vn -0.2781 0.4818 0.8310
vn -0.0321 0.7915 0.6103
vn -0.2781 0.3313 0.9016
vn -0.0321 -0.0364 0.9988
vn 0.0321 -0.7915 -0.6103
vn 0.2781 -0.4818 -0.8310
vn 0.0321 0.0364 -0.9988
vn 0.2781 -0.3313 -0.9016
vn -0.1342 0.1199 -0.9837
vn -0.3684 -0.2486 -0.8958
vn -0.1342 -0.8333 -0.5363
vn -0.3684 -0.5302 -0.7636
vn 0.3684 -0.5302 -0.7636
vn 0.1342 -0.8333 -0.5363
vn 0.1342 0.1199 -0.9837
vn 0.3684 -0.2486 -0.8958
vn -0.1342 -0.1199 0.9837
vn -0.3684 0.2486 0.8958
vn -0.1342 0.8333 0.5363
vn -0.3684 0.5302 0.7636
vn 0.1342 0.8333 0.5363
vn 0.3684 0.5302 0.7636
vn 0.1342 -0.1199 0.9837
vn 0.3684 0.2486 0.8958
vn -0.5396 -0.7621 0.3577
vn -0.5396 0.7621 -0.3577
vn 0.5396 -0.7621 0.3577
vn 0.5396 0.7621 -0.3577
usemtl Material.001
s 1
f 563/654/533 568/655/534 593/656/534 584/657/533
f 548/658/535 551/659/535 602/660/535 605/661/535
f 576/662/536 574/663/537 583/664/538 579/665/539
f 542/666/535 545/667/535 572/668/535 575/669/535
f 567/670/540 570/671/540 592/672/540 594/673/540
f 586/674/535 589/675/535 562/676/535 564/677/535
f 554/678/534 543/679/533 577/680/533 578/681/534
f 546/682/541 544/683/542 565/684/536 561/685/537
f 547/686/543 557/687/544 581/688/544 573/689/543
f 569/690/544 560/691/543 588/692/543 590/693/544
f 544/683/542 556/694/545 566/695/539 565/684/536
f 556/694/545 558/696/546 571/697/538 566/695/539
f 558/696/546 546/682/541 561/685/537 571/697/538
f 538/698/547 549/699/548 607/700/548 597/701/547
f 559/702/540 555/703/540 580/704/540 582/705/540
f 541/706/549 552/707/550 591/708/551 587/709/552
f 553/710/553 540/711/554 601/712/554 603/713/553
f 552/707/550 550/714/555 595/715/556 591/708/551
f 550/714/555 537/716/557 585/717/558 595/715/556
f 537/716/557 541/706/549 587/709/552 585/717/558
f 536/718/559 537/716/557 538/698/560
f 539/719/561 540/711/562 541/706/549
f 542/666/563 543/679/564 544/683/542
f 545/667/565 546/682/541 547/686/566
f 548/658/567 549/699/568 550/714/555
f 551/659/569 552/707/550 553/710/570
f 554/678/571 555/703/572 556/694/545
f 557/687/573 558/696/546 559/702/574
f 560/720/575 561/721/537 562/676/576
f 563/654/577 564/722/578 565/723/536
f 566/724/539 567/725/579 568/655/580
f 569/726/581 570/671/582 571/727/538
f 572/668/576 573/689/575 574/663/537
f 575/669/578 576/662/536 577/680/577
f 578/681/580 579/665/539 580/704/579
f 581/688/581 582/705/582 583/664/538
f 584/657/583 585/728/558 586/729/584
f 587/730/552 588/731/585 589/675/586
f 590/732/587 591/733/551 592/672/588
f 593/656/589 594/734/590 595/735/556
f 596/736/588 597/701/587 598/737/551
f 599/738/590 600/739/556 601/740/589
f 602/660/584 603/741/583 604/742/558
f 605/743/586 606/744/552 607/700/585
f 563/654/533 584/657/533 586/729/591 564/722/591
f 585/745/558 587/730/552 589/675/586 586/674/584
f 588/731/543 560/720/543 562/676/592 589/675/592
f 561/685/537 565/684/536 564/677/578 562/676/576
f 568/655/580 563/654/577 565/723/536 566/724/539
f 560/746/575 569/747/581 571/697/538 561/685/537
f 570/671/582 567/670/579 566/695/539 571/697/538
f 593/656/534 568/655/534 567/670/593 594/673/593
f 569/690/544 590/693/544 592/672/594 570/671/594
f 591/708/551 595/715/556 594/673/590 592/672/588
f 584/657/583 593/656/589 595/735/556 585/728/558
f 590/748/587 588/749/585 587/709/552 591/708/551
f 545/667/565 542/666/563 544/683/542 546/682/541
f 556/694/545 544/683/542 543/679/564 554/678/571
f 546/682/541 558/696/546 557/687/573 547/686/566
f 558/696/546 556/694/545 555/703/572 559/702/574
f 574/663/537 576/662/536 575/669/578 572/668/576
f 578/681/580 577/680/577 576/662/536 579/665/539
f 573/689/575 581/688/581 583/664/538 574/663/537
f 582/705/582 580/704/579 579/665/539 583/664/538
f 559/702/594 582/705/594 581/688/544 557/687/544
f 572/668/592 545/667/592 547/686/543 573/689/543
f 577/680/533 543/679/533 542/666/591 575/669/591
f 554/678/534 578/681/534 580/704/593 555/703/593
f 536/718/559 539/719/561 541/706/549 537/716/557
f 551/659/569 548/658/567 550/714/555 552/707/550
f 537/716/557 550/714/555 549/699/568 538/698/560
f 552/707/550 541/706/549 540/711/562 553/710/570
f 598/750/551 600/739/556 599/738/590 596/751/588
f 604/742/558 606/752/552 605/661/586 602/660/584
f 597/701/587 607/700/585 606/744/552 598/737/551
f 603/713/583 601/712/589 600/753/556 604/754/558
f 539/719/593 599/738/593 601/712/554 540/711/554
f 602/660/591 551/659/591 553/710/553 603/713/553
f 607/700/548 549/699/548 548/658/592 605/661/592
f 596/751/594 536/718/594 538/698/547 597/701/547
f 539/719/540 536/718/540 596/751/540 599/738/540
usemtl Screen
f 606/755/552 604/756/558 600/757/556 598/758/551
o Cube.006
v 0.106876 1.175271 -0.651765
v 0.157541 1.175271 -0.651765
v 0.106876 1.182531 -0.604766
v 0.157541 1.182531 -0.604762
v 0.099858 1.390462 -0.660404
v 0.150522 1.390462 -0.660404
v 0.099858 1.397722 -0.613406
v 0.150522 1.397722 -0.613401
v 0.155936 1.256554 -0.680358
v 0.155936 1.263814 -0.633355
v 0.105271 1.263814 -0.633360
v 0.105271 1.256554 -0.680358
v 0.132208 1.175271 -0.654772
v 0.132208 1.182531 -0.590138
v 0.125190 1.390462 -0.670219
v 0.125190 1.397722 -0.605585
v 0.130603 1.256554 -0.693987
v 0.130603 1.263814 -0.629353
v 0.167045 1.178901 -0.622453
v 0.097371 1.178901 -0.622457
v 0.160027 1.394092 -0.637900
v 0.090354 1.394092 -0.637903
v 0.095767 1.260184 -0.661671
v 0.165440 1.260184 -0.661668
v 0.125190 1.394092 -0.636904
v -0.106876 1.175271 -0.651765
v -0.157541 1.175271 -0.651765
v -0.106876 1.182531 -0.604766
v -0.157541 1.182531 -0.604762
v -0.099858 1.390462 -0.660404
v -0.150522 1.390462 -0.660404
v -0.099858 1.397722 -0.613406
v -0.150522 1.397722 -0.613401
v -0.155936 1.256554 -0.680358
v -0.155936 1.263814 -0.633355
v -0.105271 1.263814 -0.633360
v -0.105271 1.256554 -0.680358
v -0.132208 1.175271 -0.654772
v -0.132208 1.182531 -0.590138
v -0.125190 1.390462 -0.670219
v -0.125190 1.397722 -0.605585
v -0.130603 1.256554 -0.693987
v -0.130603 1.263814 -0.629353
v -0.167045 1.178901 -0.622453
v -0.097371 1.178901 -0.622457
v -0.160027 1.394092 -0.637900
v -0.090354 1.394092 -0.637903
v -0.095767 1.260184 -0.661671
v -0.165440 1.260184 -0.661668
v -0.125190 1.394092 -0.636904
vt 0.722222 0.521859
vt 0.722222 0.500000
vt 0.722222 0.500000
vt 0.722222 0.521859
vt 0.729167 0.521859
vt 0.736111 0.521859
vt 0.736111 0.543718
vt 0.729167 0.543718
vt 0.736111 0.521859
vt 0.736111 0.543718
vt 0.729167 0.543718
vt 0.722222 0.543718
vt 0.722222 0.543718
vt 0.625000 0.395833
vt 0.625000 0.388889
vt 0.625000 0.388889
vt 0.625000 0.395833
vt 0.625000 0.395833
vt 0.625000 0.388889
vt 0.729167 0.543718
vt 0.722222 0.543718
vt 0.736111 0.521859
vt 0.736111 0.543718
vt 0.722222 0.521859
vt 0.722222 0.500000
vt 0.625000 0.402778
vt 0.625000 0.402778
vt 0.625000 0.402778
vt 0.729167 0.500000
vt 0.736111 0.500000
vt 0.736111 0.500000
vt 0.736111 0.500000
vt 0.722222 0.521859
vt 0.722222 0.521859
vt 0.722222 0.500000
vt 0.722222 0.500000
vt 0.729167 0.521859
vt 0.729167 0.543718
vt 0.736111 0.543718
vt 0.736111 0.521859
vt 0.736111 0.521859
vt 0.736111 0.543718
vt 0.729167 0.543718
vt 0.722222 0.543718
vt 0.722222 0.543718
vt 0.625000 0.395833
vt 0.625000 0.395833
vt 0.625000 0.388889
vt 0.625000 0.388889
vt 0.625000 0.395833
vt 0.625000 0.388889
vt 0.729167 0.543718
vt 0.722222 0.543718
vt 0.736111 0.521859
vt 0.736111 0.543718
vt 0.722222 0.521859
vt 0.722222 0.500000
vt 0.625000 0.402778
vt 0.625000 0.402778
vt 0.625000 0.402778
vt 0.729167 0.500000
vt 0.736111 0.500000
vt 0.736111 0.500000
vt 0.736111 0.500000
vn 0.9949 0.0277 -0.0971
vn 0.6691 -0.0764 -0.7392
vn 0.7161 0.1406 -0.6837
vn 0.9989 0.0353 0.0310
vn 0.0000 0.9912 -0.1322
vn -0.0002 0.9912 -0.1322
vn 0.0194 0.9910 -0.1322
vn -0.9955 -0.0315 -0.0895
vn -0.7112 0.0576 0.7006
vn -0.9325 -0.0946 0.3486
vn -0.9980 -0.0472 0.0417
vn 0.0007 0.1160 0.9933
vn 0.7154 0.1034 0.6910
vn 0.2247 -0.1481 0.9631
vn -0.0055 -0.1613 0.9869
vn 0.0036 -0.1111 -0.9938
vn -0.6675 -0.1118 -0.7362
vn -0.7336 0.0805 -0.6748
vn -0.0115 0.1607 -0.9869
vn 0.0039 -0.3849 -0.9230
vn -0.6960 -0.2881 -0.6577
vn 0.0031 0.3850 0.9229
vn 0.6525 0.3027 0.6947
vn -0.9971 0.0119 0.0756
vn -0.6505 0.2814 0.7054
vn 0.9965 0.0483 0.0686
vn 0.7047 -0.2612 -0.6597
vn -0.2242 -0.1658 0.9603
vn 0.0002 0.9912 -0.1322
vn -0.0194 0.9910 -0.1322
vn 0.9400 -0.0176 0.3408
vn -0.9949 0.0277 -0.0971
vn -0.9989 0.0353 0.0310
vn -0.7161 0.1406 -0.6837
vn -0.6691 -0.0764 -0.7392
vn 0.9955 -0.0315 -0.0895
vn 0.9980 -0.0472 0.0417
vn 0.9325 -0.0946 0.3486
vn 0.7112 0.0576 0.7006
vn -0.0007 0.1160 0.9933
vn 0.0055 -0.1613 0.9869
vn -0.2247 -0.1481 0.9631
vn -0.7154 0.1034 0.6910
vn -0.0036 -0.1111 -0.9938
vn 0.0115 0.1607 -0.9869
vn 0.7336 0.0805 -0.6748
vn 0.6675 -0.1118 -0.7362
vn -0.0039 -0.3849 -0.9230
vn 0.6960 -0.2881 -0.6577
vn -0.0031 0.3850 0.9229
vn -0.6525 0.3027 0.6947
vn 0.9971 0.0119 0.0756
vn 0.6505 0.2814 0.7054
vn -0.9965 0.0483 0.0686
vn -0.7047 -0.2612 -0.6597
vn 0.2242 -0.1658 0.9603
vn -0.9400 -0.0176 0.3408
usemtl metal
s 1
f 631/759/595 616/760/596 613/761/597 628/762/598
f 632/763/599 629/764/600 614/765/601 623/766/599
f 630/767/602 618/768/603 614/765/604 629/764/605
f 625/769/606 617/770/607 615/771/608 623/766/609
f 624/772/610 619/773/611 612/774/612 622/775/613
f 620/776/614 608/777/615 619/773/611 624/772/610
f 621/778/616 611/779/617 617/770/607 625/769/606
f 627/780/618 610/781/619 618/768/603 630/767/602
f 626/782/620 609/783/621 616/760/596 631/759/595
f 610/781/619 621/778/616 625/769/606 618/768/603
f 609/784/621 620/776/614 624/772/610 616/785/596
f 616/785/596 624/772/610 622/775/613 613/786/597
f 618/768/603 625/769/606 623/766/609 614/765/622
f 628/762/623 632/763/599 623/766/599 615/771/624
f 613/761/601 622/787/599 632/763/599 628/762/623
f 611/779/617 626/782/620 631/759/595 617/770/607
f 608/788/615 627/780/618 630/767/602 619/789/611
f 619/789/611 630/767/602 629/764/605 612/790/612
f 622/787/599 612/790/624 629/764/600 632/763/599
f 617/770/607 631/759/595 628/762/598 615/771/625
f 656/791/626 653/792/627 638/793/628 641/794/629
f 657/795/599 648/796/599 639/797/624 654/798/623
f 655/799/630 654/798/631 639/797/632 643/800/633
f 650/801/634 648/796/635 640/802/636 642/803/637
f 649/804/638 647/805/639 637/806/640 644/807/641
f 645/808/642 649/804/638 644/807/641 633/809/643
f 646/810/644 650/801/634 642/803/637 636/811/645
f 652/812/646 655/799/630 643/800/633 635/813/647
f 651/814/648 656/791/626 641/794/629 634/815/649
f 635/813/647 643/800/633 650/801/634 646/810/644
f 634/816/649 641/817/629 649/804/638 645/808/642
f 641/817/629 638/818/628 647/805/639 649/804/638
f 643/800/633 639/797/650 648/796/635 650/801/634
f 653/792/600 640/802/601 648/796/599 657/795/599
f 638/793/624 653/792/600 657/795/599 647/819/599
f 636/811/645 642/803/637 656/791/626 651/814/648
f 633/820/643 644/821/641 655/799/630 652/812/646
f 644/821/641 637/822/640 654/798/631 655/799/630
f 647/819/599 657/795/599 654/798/623 637/822/601
f 642/803/637 640/802/651 653/792/627 656/791/626
o Cube.007
v 0.334416 1.060097 -0.098859
v 0.410378 1.039050 -0.255195
v 0.394407 1.027336 -0.254565
v 0.394406 1.091310 -0.254565
v 0.410413 1.079482 -0.255195
v 0.286618 1.038985 -0.249044
v 0.309080 1.027268 -0.260045
v 0.301798 1.039419 -0.234533
v 0.286618 1.079661 -0.249044
v 0.301798 1.079386 -0.234541
v 0.309272 1.094511 -0.258868
v 0.397482 1.080835 0.043698
v 0.410401 1.081006 0.031676
v 0.394403 1.092795 0.031676
v 0.410371 1.040512 0.031676
v 0.397482 1.040905 0.043698
v 0.394404 1.028821 0.031676
v 0.346998 1.028820 0.031676
v 0.346894 1.040905 0.043698
v 0.334416 1.040839 0.031676
v 0.346894 1.080835 0.043698
v 0.346998 1.092794 0.031676
v 0.334416 1.080774 0.031676
v 0.412973 1.070952 -0.255195
v 0.412973 1.047695 -0.255195
v 0.301879 1.059389 -0.229359
v 0.286618 1.059323 -0.243754
v 0.412977 1.049191 0.031676
v 0.412977 1.072425 0.031676
v 0.403475 1.060870 0.043698
v 0.346894 1.060870 0.043698
v 0.334416 1.060805 0.031676
v 0.410404 1.080285 -0.105749
v 0.394404 1.092084 -0.105279
v 0.410373 1.039806 -0.105749
v 0.394405 1.028110 -0.105279
v 0.347002 1.092084 -0.103493
v 0.334416 1.080072 -0.101456
v 0.334416 1.040137 -0.101454
v 0.347002 1.028110 -0.103493
v 0.412976 1.048477 -0.105749
v 0.412976 1.071717 -0.105749
v -0.334416 1.060097 -0.098859
v -0.410378 1.039050 -0.255195
v -0.394407 1.027336 -0.254565
v -0.394406 1.091310 -0.254565
v -0.410413 1.079482 -0.255195
v -0.286618 1.038985 -0.249044
v -0.309080 1.027268 -0.260045
v -0.301798 1.039419 -0.234533
v -0.286618 1.079661 -0.249044
v -0.301798 1.079386 -0.234541
v -0.309272 1.094511 -0.258868
v -0.397482 1.080835 0.043698
v -0.410401 1.081006 0.031676
v -0.394403 1.092795 0.031676
v -0.410371 1.040512 0.031676
v -0.397482 1.040905 0.043698
v -0.394404 1.028821 0.031676
v -0.346998 1.028820 0.031676
v -0.346894 1.040905 0.043698
v -0.334416 1.040839 0.031676
v -0.346894 1.080835 0.043698
v -0.346998 1.092794 0.031676
v -0.334416 1.080774 0.031676
v -0.412973 1.070952 -0.255195
v -0.412973 1.047695 -0.255195
v -0.301879 1.059389 -0.229359
v -0.286618 1.059323 -0.243754
v -0.412977 1.049191 0.031676
v -0.412977 1.072425 0.031676
v -0.403475 1.060870 0.043698
v -0.346894 1.060870 0.043698
v -0.334416 1.060805 0.031676
v -0.410404 1.080285 -0.105749
v -0.394404 1.092084 -0.105279
v -0.410373 1.039806 -0.105749
v -0.394405 1.028110 -0.105279
v -0.347002 1.092084 -0.103493
v -0.334416 1.080072 -0.101456
v -0.334416 1.040137 -0.101454
v -0.347002 1.028110 -0.103493
v -0.412976 1.048477 -0.105749
v -0.412976 1.071717 -0.105749
vt 0.545443 0.750000
vt 0.578778 0.750000
vt 0.578894 0.750000
vt 0.545410 0.750000
vt 0.634612 0.750000
vt 0.699464 0.750000
vt 0.693856 0.750000
vt 0.639331 0.750000
vt 0.500000 0.763193
vt 0.578020 0.764037
vt 0.578020 0.819673
vt 0.500000 0.820660
vt 0.420707 0.750000
vt 0.454590 0.750000
vt 0.454601 0.750000
vt 0.420685 0.750000
vt 0.578931 0.750000
vt 0.545399 0.750000
vt 0.578061 0.833333
vt 0.500000 0.833333
vt 0.500000 0.833333
vt 0.578032 0.833333
vt 0.422001 0.833333
vt 0.421973 0.833333
vt 0.578147 0.833333
vt 0.500000 0.833333
vt 0.421972 0.833333
vt 0.306144 0.750000
vt 0.360670 0.750000
vt 0.360669 0.750000
vt 0.306139 0.750000
vt 0.421980 0.764037
vt 0.421980 0.819673
vt 0.300481 0.750000
vt 0.365389 0.750000
vt 0.693861 0.750000
vt 0.639332 0.750000
vt 0.289300 0.750000
vt 0.291667 0.741716
vt 0.291667 0.750000
vt 0.579478 0.835821
vt 0.566890 0.833333
vt 0.625000 0.833333
vt 0.591072 0.750000
vt 0.625000 0.750000
vt 0.375000 0.750000
vt 0.364210 0.750000
vt 0.306020 0.750000
vt 0.291668 0.750000
vt 0.578020 0.833333
vt 0.625000 0.833333
vt 0.500000 0.835821
vt 0.420522 0.835821
vt 0.625000 0.764332
vt 0.625000 0.818861
vt 0.420775 0.750000
vt 0.625000 0.833333
vt 0.291667 0.750000
vt 0.454557 0.750000
vt 0.545443 0.750000
vt 0.545410 0.750000
vt 0.578894 0.750000
vt 0.578778 0.750000
vt 0.634612 0.750000
vt 0.639331 0.750000
vt 0.693856 0.750000
vt 0.699464 0.750000
vt 0.500000 0.763193
vt 0.500000 0.820660
vt 0.578020 0.819673
vt 0.578020 0.764037
vt 0.420707 0.750000
vt 0.420685 0.750000
vt 0.454601 0.750000
vt 0.454590 0.750000
vt 0.545399 0.750000
vt 0.578931 0.750000
vt 0.578061 0.833333
vt 0.578032 0.833333
vt 0.500000 0.833333
vt 0.500000 0.833333
vt 0.421973 0.833333
vt 0.422001 0.833333
vt 0.578147 0.833333
vt 0.500000 0.833333
vt 0.421972 0.833333
vt 0.306144 0.750000
vt 0.306139 0.750000
vt 0.360669 0.750000
vt 0.360670 0.750000
vt 0.421980 0.764037
vt 0.421980 0.819673
vt 0.300481 0.750000
vt 0.365389 0.750000
vt 0.639332 0.750000
vt 0.693861 0.750000
vt 0.289300 0.750000
vt 0.291667 0.750000
vt 0.291667 0.741716
vt 0.579478 0.835821
vt 0.625000 0.833333
vt 0.566890 0.833333
vt 0.591072 0.750000
vt 0.625000 0.750000
vt 0.375000 0.750000
vt 0.364210 0.750000
vt 0.291668 0.750000
vt 0.306020 0.750000
vt 0.578020 0.833333
vt 0.625000 0.833333
vt 0.500000 0.835821
vt 0.420522 0.835821
vt 0.625000 0.764332
vt 0.625000 0.818861
vt 0.420775 0.750000
vt 0.625000 0.833333
vt 0.291667 0.750000
vt 0.454557 0.750000
vn 0.9895 0.1448 -0.0008
vn 0.8202 0.5721 -0.0030
vn 0.8176 0.5757 -0.0030
vn 0.9894 0.1453 -0.0008
vn 0.3225 0.9466 -0.0009
vn -0.2957 0.9404 0.1681
vn -0.3476 0.9366 0.0440
vn 0.3183 0.9480 -0.0029
vn 0.4503 0.0002 0.8929
vn 0.2929 0.4019 0.8676
vn -0.3345 0.3444 0.8772
vn -0.3741 0.0000 0.9274
vn 0.8168 -0.5770 0.0030
vn 0.9894 -0.1453 0.0007
vn 0.9193 -0.1527 0.3627
vn 0.7813 -0.5198 0.3454
vn 0.7832 0.5197 0.3414
vn 0.9197 0.1531 0.3615
vn -0.9065 0.4063 0.1151
vn -0.9938 0.0001 0.1110
vn -0.9203 0.0000 0.3913
vn -0.8701 0.3503 0.3466
vn -0.9001 -0.4202 0.1153
vn -0.8696 -0.3492 0.3491
vn -0.7630 0.4999 0.4097
vn -0.8839 0.0000 0.4677
vn -0.7450 -0.5362 0.3967
vn -0.3401 -0.9393 0.0464
vn 0.3111 -0.9504 0.0049
vn 0.2690 -0.9006 0.3415
vn -0.3317 -0.8778 0.3457
vn 0.2917 -0.3990 0.8693
vn -0.3342 -0.3419 0.8783
vn -0.2596 -0.9546 0.1463
vn 0.3078 -0.9514 0.0049
vn -0.3322 0.8802 0.3390
vn 0.2704 0.9028 0.3344
vn -0.5521 -0.5828 0.5963
vn -0.5783 0.5340 0.6168
vn -0.6874 -0.0004 0.7263
vn 0.8183 -0.5748 0.0030
vn 0.9893 -0.1458 0.0007
vn -0.9895 0.1448 -0.0008
vn -0.9894 0.1453 -0.0008
vn -0.8176 0.5757 -0.0030
vn -0.8202 0.5721 -0.0030
vn -0.3225 0.9466 -0.0009
vn -0.3183 0.9480 -0.0029
vn 0.3476 0.9366 0.0440
vn 0.2957 0.9404 0.1681
vn -0.4503 0.0002 0.8929
vn 0.3741 0.0000 0.9274
vn 0.3345 0.3444 0.8772
vn -0.2929 0.4019 0.8676
vn -0.8168 -0.5770 0.0030
vn -0.7813 -0.5198 0.3453
vn -0.9193 -0.1527 0.3627
vn -0.9894 -0.1453 0.0007
vn -0.9197 0.1531 0.3615
vn -0.7832 0.5197 0.3414
vn 0.9065 0.4063 0.1151
vn 0.8701 0.3503 0.3466
vn 0.9203 0.0000 0.3913
vn 0.9938 0.0001 0.1110
vn 0.8696 -0.3492 0.3491
vn 0.9001 -0.4202 0.1153
vn 0.7630 0.4999 0.4097
vn 0.8839 0.0000 0.4677
vn 0.7450 -0.5362 0.3967
vn 0.3401 -0.9393 0.0464
vn 0.3317 -0.8778 0.3457
vn -0.2690 -0.9006 0.3415
vn -0.3111 -0.9504 0.0049
vn -0.2917 -0.3990 0.8693
vn 0.3342 -0.3419 0.8783
vn 0.2596 -0.9546 0.1463
vn -0.3078 -0.9514 0.0049
vn -0.2704 0.9028 0.3344
vn 0.3322 0.8802 0.3390
vn 0.5521 -0.5828 0.5963
vn 0.5783 0.5340 0.6168
vn 0.6874 -0.0004 0.7263
vn -0.8183 -0.5748 0.0030
vn -0.9893 -0.1458 0.0007
usemtl Material.001
s 1
f 681/823/652 662/824/653 690/825/654 699/826/655
f 661/827/656 668/828/657 694/829/658 691/830/659
f 687/831/660 669/832/661 678/833/662 688/834/663
f 692/835/664 698/836/665 685/837/666 672/838/667
f 699/826/655 690/825/654 670/839/668 686/840/669
f 695/841/670 658/842/671 689/843/672 680/844/673
f 658/842/671 696/845/674 677/846/675 689/843/672
f 667/847/676 683/848/677 658/842/671 695/841/670
f 683/848/677 665/849/678 696/845/674 658/842/671
f 697/850/679 693/851/680 674/852/681 675/853/682
f 673/854/683 687/831/660 688/834/663 676/855/684
f 664/856/685 660/857/686 693/851/680 697/850/679
f 691/830/659 694/829/658 679/858/687 671/859/688
f 663/860/689 664/861/685 665/862/678
f 666/863/690 667/864/676 668/865/657
f 669/866/661 670/839/668 671/867/688
f 672/868/667 673/869/683 674/852/681
f 675/853/682 676/870/684 677/871/675
f 678/872/662 679/873/687 680/844/673
f 685/837/666 686/840/669 687/831/660
f 684/874/691 663/875/689 665/849/678 683/848/677
f 687/831/660 673/854/683 672/838/667 685/837/666
f 675/853/682 674/852/681 673/869/683 676/870/684
f 671/876/688 679/877/687 678/833/662 669/832/661
f 689/843/672 677/846/675 676/855/684 688/834/663
f 691/830/659 671/859/688 670/839/668 690/825/654
f 693/851/680 660/857/686 659/878/692 692/835/664
f 695/841/670 680/844/673 679/873/687 694/879/658
f 697/850/679 675/853/682 677/871/675 696/880/674
f 666/863/690 684/874/691 683/848/677 667/847/676
f 669/832/661 687/831/660 686/840/669 670/839/668
f 680/844/673 689/843/672 688/834/663 678/833/662
f 699/826/655 686/840/669 685/837/666 698/836/665
f 661/827/656 691/830/659 690/825/654 662/824/653
f 674/852/681 693/851/680 692/835/664 672/838/667
f 667/847/676 695/841/670 694/879/658 668/865/657
f 664/856/685 697/850/679 696/880/674 665/862/678
f 681/823/652 699/826/655 698/836/665 682/881/693
f 659/878/692 682/881/693 698/836/665 692/835/664
f 723/882/694 741/883/695 732/884/696 704/885/697
f 703/886/698 733/887/699 736/888/700 710/889/701
f 729/890/702 730/891/703 720/892/704 711/893/705
f 734/894/706 714/895/707 727/896/708 740/897/709
f 741/883/695 728/898/710 712/899/711 732/884/696
f 737/900/712 722/901/713 731/902/714 700/903/715
f 700/903/715 731/902/714 719/904/716 738/905/717
f 709/906/718 737/900/712 700/903/715 725/907/719
f 725/907/719 700/903/715 738/905/717 707/908/720
f 739/909/721 717/910/722 716/911/723 735/912/724
f 715/913/725 718/914/726 730/891/703 729/890/702
f 706/915/727 739/909/721 735/912/724 702/916/728
f 733/887/699 713/917/729 721/918/730 736/888/700
f 705/919/731 707/920/720 706/921/727
f 708/922/732 710/923/701 709/924/718
f 711/925/705 713/926/729 712/899/711
f 714/927/707 716/911/723 715/928/725
f 717/910/722 719/929/716 718/930/726
f 720/931/704 722/901/713 721/932/730
f 727/896/708 729/890/702 728/898/710
f 726/933/733 725/907/719 707/908/720 705/934/731
f 729/890/702 727/896/708 714/895/707 715/913/725
f 717/910/722 718/930/726 715/928/725 716/911/723
f 713/935/729 711/893/705 720/892/704 721/936/730
f 731/902/714 730/891/703 718/914/726 719/904/716
f 733/887/699 732/884/696 712/899/711 713/917/729
f 735/912/724 734/894/706 701/937/734 702/916/728
f 737/900/712 736/938/700 721/932/730 722/901/713
f 739/909/721 738/939/717 719/929/716 717/910/722
f 708/922/732 709/906/718 725/907/719 726/933/733
f 711/893/705 712/899/711 728/898/710 729/890/702
f 722/901/713 720/892/704 730/891/703 731/902/714
f 741/883/695 740/897/709 727/896/708 728/898/710
f 703/886/698 704/885/697 732/884/696 733/887/699
f 716/911/723 714/895/707 734/894/706 735/912/724
f 709/906/718 710/923/701 736/938/700 737/900/712
f 706/915/727 707/920/720 738/939/717 739/909/721
f 723/882/694 724/940/735 740/897/709 741/883/695
f 701/937/734 734/894/706 740/897/709 724/940/735
